<?xml version="1.0" encoding="UTF-8" standalone="no"?>
<!-- Created with Inkscape (http://www.inkscape.org/) -->

<svg
   xmlns:dc="http://purl.org/dc/elements/1.1/"
   xmlns:cc="http://creativecommons.org/ns#"
   xmlns:rdf="http://www.w3.org/1999/02/22-rdf-syntax-ns#"
   xmlns:svg="http://www.w3.org/2000/svg"
   xmlns="http://www.w3.org/2000/svg"
   xmlns:xlink="http://www.w3.org/1999/xlink"
   xmlns:sodipodi="http://sodipodi.sourceforge.net/DTD/sodipodi-0.dtd"
   xmlns:inkscape="http://www.inkscape.org/namespaces/inkscape"
   width="128"
   height="128"
   id="svg2"
   version="1.1"
   inkscape:version="0.48.3.1 r9886"
   sodipodi:docname="lag.svg"
   inkscape:export-xdpi="90"
   inkscape:export-ydpi="90"
   enable-background="new">
  <defs
     id="defs4">
    <filter
       id="filter3834"
       inkscape:label="Noise transparency"
       inkscape:menu="ABCs"
       inkscape:menu-tooltip="Basic noise transparency texture"
       color-interpolation-filters="sRGB">
      <feTurbulence
         id="feTurbulence3836"
         type="fractalNoise"
         numOctaves="5"
         baseFrequency="0.02"
         result="result1" />
      <feComposite
         id="feComposite3838"
         in2="result1"
         operator="in"
         result="result2"
         in="SourceGraphic" />
      <feColorMatrix
         id="feColorMatrix3840"
         result="result3"
         values="1 0 0 0 0 0 1 0 0 0 0 0 1 0 0 0 0 0 3 -1 "
         in="result2" />
    </filter>
    <linearGradient
       id="linearGradient3852-7">
      <stop
         style="stop-color:#a40000;stop-opacity:1;"
         offset="0"
         id="stop3854-2" />
      <stop
         style="stop-color:#2e3436;stop-opacity:0;"
         offset="1"
         id="stop3856-7" />
    </linearGradient>
    <linearGradient
       gradientTransform="translate(-0.0081723,-915.5082)"
       inkscape:collect="always"
       xlink:href="#linearGradient3868-0"
       id="linearGradient3874-7"
       x1="71.51786"
       y1="999.68359"
       x2="84.910713"
       y2="956.73718"
       gradientUnits="userSpaceOnUse" />
    <linearGradient
       id="linearGradient3868-0">
      <stop
         style="stop-color:#a40000;stop-opacity:1;"
         offset="0"
         id="stop3870-9" />
      <stop
         style="stop-color:#2e3436;stop-opacity:0;"
         offset="1"
         id="stop3872-6" />
    </linearGradient>
    <linearGradient
       y2="12.208558"
       x2="30.681835"
       y1="62.400517"
       x1="67.835869"
       gradientUnits="userSpaceOnUse"
       id="linearGradient3896"
       xlink:href="#linearGradient3852-7"
       inkscape:collect="always" />
    <filter
       inkscape:collect="always"
       id="filter4023">
      <feBlend
         inkscape:collect="always"
         mode="multiply"
         in2="BackgroundImage"
         id="feBlend4025" />
    </filter>
    <filter
       inkscape:collect="always"
       id="filter4251">
      <feBlend
         inkscape:collect="always"
         mode="multiply"
         in2="BackgroundImage"
         id="feBlend4253" />
    </filter>
  </defs>
  <sodipodi:namedview
     id="base"
     pagecolor="#000000"
     bordercolor="#666666"
     borderopacity="1.0"
     inkscape:pageopacity="0"
     inkscape:pageshadow="2"
     inkscape:zoom="3.959798"
     inkscape:cx="-53.995626"
     inkscape:cy="57.573268"
     inkscape:document-units="px"
     inkscape:current-layer="svg2"
     showgrid="false"
     inkscape:window-width="1920"
     inkscape:window-height="993"
     inkscape:window-x="0"
     inkscape:window-y="27"
     inkscape:window-maximized="1"
     showguides="true"
     inkscape:guide-bbox="true" />
  <metadata
     id="metadata7">
    <rdf:RDF>
      <cc:Work
         rdf:about="">
        <dc:format>image/svg+xml</dc:format>
        <dc:type
           rdf:resource="http://purl.org/dc/dcmitype/StillImage" />
        <dc:title />
      </cc:Work>
    </rdf:RDF>
  </metadata>
  <g
     inkscape:label="Noise"
     inkscape:groupmode="layer"
     id="layer1"
     transform="translate(0,-924.36218)">
    <rect
       style="fill:#ef2929;fill-opacity:1;stroke:none"
       id="rect5079"
       width="128"
       height="128"
       x="0"
       y="924.36218"
       ry="0"
       rx="0" />
    <rect
       style="fill:#a40000;fill-opacity:1;stroke:none;filter:url(#filter3834)"
       id="rect5079-1"
       width="128"
       height="128"
       x="0"
       y="924.36218"
       ry="0"
       rx="0" />
  </g>
  <g
     inkscape:groupmode="layer"
     id="layer3"
     inkscape:label="Darken"
     style="display:inline;filter:url(#filter4023)">
    <rect
       style="fill:#888a85;fill-opacity:1;stroke:none"
       id="rect3969"
       width="128"
       height="128"
       x="0"
       y="0" />
  </g>
  <g
     inkscape:groupmode="layer"
     id="layer2"
     inkscape:label="Planet"
     style="opacity:0.64;display:inline;filter:url(#filter4251)">
    <path
       sodipodi:type="arc"
       style="fill:url(#linearGradient3896);fill-opacity:1;stroke:none"
       id="path5081"
       sodipodi:cx="62.881996"
       sodipodi:cy="59.940971"
       sodipodi:rx="22.475895"
       sodipodi:ry="18.561554"
       d="m 85.357891,59.940971 a 22.475895,18.561554 0 1 1 -44.95179,0 22.475895,18.561554 0 1 1 44.95179,0 z"
       transform="matrix(0.77861193,0,0,0.94280899,15.031155,26.415071)" />
    <path
       style="fill:url(#linearGradient3874-7);fill-opacity:1;stroke:none"
       d="m 60.872319,75.977881 c -10.372252,4.64199 -19.514424,9.55382 -26.144715,13.95032 -6.630292,4.3965 -10.929206,8.4744 -9.990511,10.571899 0.938695,2.0974 6.840537,1.6011 14.536565,-0.414 7.696026,-2.015099 17.449974,-5.559999 27.822226,-10.201999 10.372251,-4.642 19.542948,-9.56666 26.173239,-13.96311 6.630291,-4.39646 10.932557,-8.46691 9.993867,-10.56436 -0.9387,-2.09746 -6.843894,-1.60866 -14.539921,0.40647 -7.696027,2.01513 -17.478498,5.57279 -27.85075,10.21478 z m 1.046767,2.33894 c 8.850857,-3.96111 17.087664,-6.91401 22.926242,-8.44278 5.838578,-1.52878 8.998411,-1.61962 9.489725,-0.52181 0.491313,1.09781 -1.685064,3.38613 -6.715123,6.72149 -5.030058,3.33537 -12.719956,7.5103 -21.570813,11.47138 -8.850857,3.9611 -17.059136,6.9013 -22.897718,8.4301 -5.838583,1.5287 -9.023581,1.6398 -9.514895,0.542 -0.491313,-1.0978 1.710229,-3.4064 6.740292,-6.7417 5.030063,-3.3354 12.691433,-7.49758 21.54229,-11.45868 z"
       id="path5087"
       inkscape:connector-curvature="0" />
    <path
       style="opacity:0.75;fill:#a40000;fill-opacity:1;stroke:none;display:inline"
       d="M 0,85.400003 0,128 l 8,0 112,0 8,0 0,-42.599997 -8,0 L 120,120 8,120 8,85.400003 z"
       id="rect4070"
       inkscape:connector-curvature="0"
       sodipodi:nodetypes="ccccccccccc" />
    <path
       inkscape:connector-curvature="0"
       style="opacity:0.75;fill:#a40000;fill-opacity:1;stroke:none;display:inline"
       d="m 0,42.700003 0,-42.7 8,0 112,0 8,0 0,42.7 -8,0 0,-34.6999999 -112,0 0,34.6999999 z"
       id="rect4070-3"
       sodipodi:nodetypes="ccccccccccc" />
  </g>
</svg>
