<?xml version="1.0" encoding="UTF-8" standalone="no"?>
<!-- Created with Inkscape (http://www.inkscape.org/) -->

<svg
   xmlns:dc="http://purl.org/dc/elements/1.1/"
   xmlns:cc="http://creativecommons.org/ns#"
   xmlns:rdf="http://www.w3.org/1999/02/22-rdf-syntax-ns#"
   xmlns:svg="http://www.w3.org/2000/svg"
   xmlns="http://www.w3.org/2000/svg"
   xmlns:sodipodi="http://sodipodi.sourceforge.net/DTD/sodipodi-0.dtd"
   xmlns:inkscape="http://www.inkscape.org/namespaces/inkscape"
   width="256"
   height="256"
   id="svg2"
   version="1.1"
   inkscape:version="0.48.0 r9654"
   sodipodi:docname="talkBalloon.svg"
   inkscape:export-filename="/home/zack/Turtle_Arena_svn/trunk/base/sprites/talkBalloon.png"
   inkscape:export-xdpi="90"
   inkscape:export-ydpi="90">
  <defs
     id="defs4" />
  <sodipodi:namedview
     id="base"
     pagecolor="#ffffff"
     bordercolor="#666666"
     borderopacity="1.0"
     inkscape:pageopacity="0.0"
     inkscape:pageshadow="2"
     inkscape:zoom="1.4975"
     inkscape:cx="137.64806"
     inkscape:cy="142.01484"
     inkscape:document-units="px"
     inkscape:current-layer="layer1"
     showgrid="false"
     inkscape:window-width="1152"
     inkscape:window-height="782"
     inkscape:window-x="0"
     inkscape:window-y="27"
     inkscape:window-maximized="1" />
  <metadata
     id="metadata7">
    <rdf:RDF>
      <cc:Work
         rdf:about="">
        <dc:format>image/svg+xml</dc:format>
        <dc:type
           rdf:resource="http://purl.org/dc/dcmitype/StillImage" />
        <dc:title></dc:title>
      </cc:Work>
    </rdf:RDF>
  </metadata>
  <g
     inkscape:label="Layer 1"
     inkscape:groupmode="layer"
     id="layer1">
    <rect
       style="fill:#eeeeec;fill-opacity:1;stroke:none;stroke-opacity:1;stroke-width:2.50000000000000000;stroke-miterlimit:4;stroke-dasharray:none"
       id="rect3133"
       width="245.71428"
       height="185"
       x="4.2857141"
       y="15.285714"
       ry="46.972092" />
    <path
       style="fill:#eeeeec;stroke:none;stroke-width:2.50000000000000000;stroke-linecap:butt;stroke-linejoin:miter;stroke-miterlimit:4;stroke-opacity:1;stroke-dasharray:none"
       d="m 238.17174,184.52522 -64.67804,64.46685 -0.39459,-49.971"
       id="path3923"
       inkscape:connector-curvature="0"
       sodipodi:nodetypes="ccc" />
    <text
       xml:space="preserve"
       style="font-size:24px;font-style:normal;font-variant:normal;font-weight:normal;font-stretch:normal;line-height:125%;letter-spacing:0px;word-spacing:0px;fill:#000000;fill-opacity:1;stroke:none;font-family:FreeSans;-inkscape-font-specification:FreeSans"
       x="32.857143"
       y="124.57143"
       id="text3929"
       sodipodi:linespacing="125%"><tspan
         sodipodi:role="line"
         id="tspan3931"
         x="32.857143"
         y="124.57143" /></text>
    <text
       xml:space="preserve"
       style="font-size:24px;font-style:normal;font-variant:normal;font-weight:normal;font-stretch:normal;line-height:125%;letter-spacing:0px;word-spacing:0px;fill:#000000;fill-opacity:1;stroke:none;font-family:FreeSans;-inkscape-font-specification:FreeSans"
       x="38.57143"
       y="141"
       id="text3937"
       sodipodi:linespacing="125%"><tspan
         sodipodi:role="line"
         id="tspan3939"
         x="38.57143"
         y="141" /></text>
    <path
       style="fill:#2e3436;fill-opacity:1;stroke:none"
       id="path3967"
       d="m 25.007007,84.003003 c 0.632163,2.49192 1.538396,4.901774 2.303694,7.353027 0.887085,2.841339 1.423155,4.83411 2.243226,7.748378 2.58584,9.432332 5.245269,18.852212 7.477451,28.376752 0.503687,2.14919 0.962555,4.30863 1.443833,6.46295 1.974954,9.36701 3.643784,18.79275 5.594163,28.16512 0,0 -4.618108,0.8068 -4.618108,0.8068 l 0,0 c -1.332435,-9.41405 -2.79694,-18.82126 -4.721192,-28.13348 -0.47667,-2.12463 -0.925895,-4.25561 -1.430009,-6.3739 -2.249637,-9.45299 -5.08348,-18.75753 -7.91956,-28.04693 -0.861706,-2.678232 -1.520487,-4.822575 -2.469865,-7.435439 -0.907807,-2.498448 -1.964775,-4.939885 -2.936165,-7.413518 0,0 5.032532,-1.50976 5.032532,-1.50976 z"
       inkscape:connector-curvature="0" />
    <path
       style="fill:#2e3436;fill-opacity:1;stroke:none"
       id="path3969"
       d="m 34.015412,121.31088 c 5.009367,-0.29572 10.014063,-0.6144 15.008601,-1.01944 4.170499,-0.31199 8.323918,-0.72102 12.474744,-1.14131 0,0 0.831563,4.90354 0.831563,4.90354 l 0,0 c -4.164967,0.28686 -8.321455,0.62381 -12.472578,0.99867 -4.797883,0.45305 -9.625065,0.79391 -14.386931,1.41297 0,0 -1.455399,-5.15443 -1.455399,-5.15443 z"
       inkscape:connector-curvature="0" />
    <path
       style="fill:#2e3436;fill-opacity:1;stroke:none"
       id="path3971"
       d="m 46.950991,82.206044 c 2.653173,4.184842 4.944087,8.581731 7.218937,12.979555 3.402833,6.625711 6.40302,13.465221 8.721359,20.549151 1.708249,5.21974 1.991387,6.76238 3.32582,12.10457 2.472149,10.36743 3.472413,20.98579 4.811017,31.53522 0,0 -4.494145,0.44627 -4.494145,0.44627 l 0,0 c -0.747101,-10.41289 -1.634253,-20.8547 -4.116676,-31.0264 -1.277556,-5.05044 -1.616613,-6.78959 -3.26114,-11.71667 -2.293706,-6.87206 -5.324057,-13.47592 -8.823725,-19.813134 -2.396206,-4.222409 -4.818457,-8.456308 -7.845351,-12.268622 0,0 4.463904,-2.78994 4.463904,-2.78994 z"
       inkscape:connector-curvature="0" />
    <path
       style="fill:#2e3436;fill-opacity:1;stroke:none"
       id="path3973"
       d="m 90.12277,157.05438 c -1.271671,-3.31713 -2.516146,-6.64257 -3.673844,-10.00178 -2.052957,-5.72622 -3.599603,-11.60575 -4.777495,-17.56863 0,0 4.760611,-0.83693 4.760611,-0.83693 l 0,0 c 0.878935,5.75059 2.295716,11.38925 4.414206,16.81784 1.276503,3.37203 2.66721,6.69784 4.29955,9.91516 0,0 -5.023028,1.67434 -5.023028,1.67434 z"
       inkscape:connector-curvature="0" />
    <path
       style="fill:#2e3436;fill-opacity:1;stroke:none"
       id="path3975"
       d="m 80.374965,107.36587 c 0.02285,0.88034 0.304936,1.70224 0.585322,2.52553 0,0 -4.93919,1.64766 -4.93919,1.64766 l 0,0 c -0.354869,-1.08371 -0.701445,-2.17076 -0.871177,-3.30235 0,0 5.225045,-0.87084 5.225045,-0.87084 z"
       inkscape:connector-curvature="0" />
    <path
       style="fill:#2e3436;fill-opacity:1;stroke:none"
       id="path3979"
       d="m 81.200541,115.99152 c 0.370982,-0.0795 0.739123,-0.17363 1.112946,-0.23844 3.02634,-0.5247 6.107055,-0.81908 9.157452,-1.15241 3.532559,-0.38603 7.067649,-0.74849 10.601171,-1.12561 11.23678,-1.15261 22.4438,-2.57089 33.60911,-4.28096 0.962,-0.15934 1.92401,-0.31867 2.88601,-0.478 0,0 0.57546,4.64569 0.57546,4.64569 l 0,0 c -0.97405,0.0805 -1.94809,0.16096 -2.92214,0.24145 -11.24597,1.03131 -22.45569,2.42179 -33.6537,3.87726 -3.116752,0.43767 -7.306192,1.00898 -10.469994,1.51365 -2.816789,0.44932 -5.684318,0.89959 -8.428909,1.70453 -0.272661,0.08 -0.535288,0.19084 -0.802933,0.28626 0,0 -1.664473,-4.99342 -1.664473,-4.99342 z"
       inkscape:connector-curvature="0" />
    <path
       style="fill:#2e3436;fill-opacity:1;stroke:none"
       id="path3981"
       d="m 151.88608,155.96089 c 0.19068,-2.35731 -0.0936,-4.72462 -0.3512,-7.06539 -0.30704,-2.79047 -0.45534,-3.81822 -0.82692,-6.68568 -1.33965,-9.05629 -2.44851,-18.14512 -3.36643,-27.25332 -0.5953,-6.42985 -0.98845,-12.8768 -1.3714,-19.322254 -0.26186,-3.259107 -0.27624,-5.273366 4.6772,-3.909195 0.2818,0.07761 1.55639,2.607055 1.6986,2.877534 2.281,4.719969 4.39687,9.517145 6.66171,14.244935 2.26362,4.56947 4.89004,8.9741 7.88448,13.10309 0.25822,0.297 0.51644,0.59399 0.77467,0.89098 0.0893,0.016 0.3472,0.0922 0.26803,0.0478 -0.42667,-0.23919 -0.83366,-0.60024 -1.32131,-0.6383 -0.49086,-0.0383 -0.98973,0.67341 -1.41466,0.42473 -0.32673,-0.1912 0.18039,-0.73591 0.24575,-1.10879 0.14316,-0.81667 0.25302,-1.63883 0.37953,-2.45824 0.65106,-5.77828 0.66183,-11.60047 0.90098,-17.40346 0.0626,-1.52007 0.38578,-7.920823 0.46623,-9.530316 0.22933,-3.606182 0.48083,-7.210915 0.71389,-10.81685 0.009,-0.142623 0.15907,-3.247309 0.32571,-3.692482 0.23894,-0.638304 0.69402,-1.173212 1.04103,-1.759817 1.49573,0.503778 3.22488,0.563932 4.48719,1.511334 0.71328,0.535332 0.61761,1.673921 0.8888,2.523504 0.36205,1.134213 0.69977,2.276536 1.01029,3.425926 1.37214,5.079036 2.32554,10.222854 3.26304,15.395372 2.05748,12.053559 2.55203,24.286759 3.29099,36.469549 0.30528,4.89365 0.80706,9.76108 1.56258,14.6042 0,0 -4.71134,0.5779 -4.71134,0.5779 l 0,0 c -0.45237,-4.9844 -0.76916,-9.97673 -0.97881,-14.97765 -0.46166,-12.01007 -0.84279,-24.06962 -3.10199,-35.911252 -1.02365,-4.958326 -2.02664,-9.898536 -3.64981,-14.704966 -0.35302,-1.045358 -0.76026,-2.072195 -1.17973,-3.092708 -0.2326,-0.565872 -1.27018,-1.303899 -0.77531,-1.663642 0.92435,-0.671947 2.27907,-0.171922 3.41861,-0.257883 0.13129,-0.391635 0.15658,-0.836805 0.39386,-1.174906 0.21183,-0.30184 -0.24334,0.698865 -0.3138,1.060826 -0.13567,0.696966 -0.21007,1.404541 -0.30312,2.108465 -0.46623,3.526818 -0.83594,7.067017 -1.09994,10.614759 -0.17515,2.825261 -0.42482,6.606899 -0.53629,9.421287 -0.23529,5.94064 -0.10079,11.88946 -0.4253,17.8273 -0.0783,0.88086 -0.2639,4.59963 -0.86436,5.53975 -0.59453,0.93084 -1.40223,1.87093 -2.44425,2.23715 -2.07909,0.73069 -3.47345,-1.41324 -4.38719,-2.71663 -2.87627,-4.48981 -5.64518,-9.06993 -8.01043,-13.8512 -2.23453,-4.61035 -4.34807,-9.28945 -6.811,-13.782806 -1.78585,-2.857485 -0.67305,-0.363314 2.69582,-2.04296 0.55089,-0.27466 0.37232,-2.26405 0.26146,-0.7738 -0.0307,0.413144 -0.0262,0.828157 -0.0393,1.242236 -0.0753,6.35036 0.13153,12.70116 0.67376,19.03036 0.84015,9.04901 2.05022,18.06173 3.59619,27.01783 0.76161,4.77972 1.65395,9.55953 1.94223,14.39764 0,0 -5.23872,0 -5.23872,0 z"
       inkscape:connector-curvature="0" />
    <path
       style="fill:#2e3436;fill-opacity:1;stroke:none"
       id="path3983"
       d="m 192.64466,149.72676 c 0.70625,-5.229 0.38227,-10.52597 0.17848,-15.77711 -0.49724,-7.86493 -1.02076,-15.72809 -1.52387,-23.59266 0,0 4.67274,-0.19546 4.67274,-0.19546 l 0,0 c 0.15353,7.86767 0.59824,15.72324 1.22453,23.56736 0.34278,5.52108 0.77543,11.04307 0.68369,16.5796 0,0 -5.23557,-0.58173 -5.23557,-0.58173 z"
       inkscape:connector-curvature="0" />
    <path
       style="fill:#2e3436;fill-opacity:1;stroke:none"
       id="path3985"
       d="m 194.88992,111.33937 c 4.33374,0.26244 8.67841,0.29352 13.0188,0.31631 2.72636,0.0211 5.45218,-0.032 8.17764,-0.0917 0,0 0,4.81904 0,4.81904 l 0,0 c -2.72546,-0.0597 -5.45128,-0.11274 -8.17764,-0.0917 -4.34039,0.0228 -8.68506,0.0539 -13.0188,0.31631 0,0 0,-5.26833 0,-5.26833 z"
       inkscape:connector-curvature="0" />
    <path
       style="fill:#2e3436;fill-opacity:1;stroke:none"
       id="path3987"
       d="m 195.02052,128.09053 c 3.51137,-0.27881 7.01224,-0.65199 10.51577,-1.01435 2.31976,-0.28946 1.20154,-0.14184 3.35511,-0.43963 0,0 0.58744,4.95731 0.58744,4.95731 l 0,0 c -2.20734,0.21876 -1.05706,0.10282 -3.45073,0.34884 -3.41311,0.33665 -6.84269,0.67547 -10.21273,1.31439 0,0 -0.79486,-5.16656 -0.79486,-5.16656 z"
       inkscape:connector-curvature="0" />
    <path
       style="fill:#2e3436;fill-opacity:1;stroke:none"
       id="path3989"
       d="m 194.26108,145.63495 c 4.61336,0.42243 9.22793,0.14947 13.82618,-0.28955 2.96138,-0.2546 5.89785,-0.71916 8.83551,-1.15856 0,0 0.64564,4.67262 0.64564,4.67262 l 0,0 c -3.00022,0.38076 -5.99735,0.79049 -9.00732,1.08906 -2.82253,0.31061 -3.45865,0.41485 -6.24775,0.59115 -2.68246,0.16956 -5.37213,0.13892 -8.05226,0.34388 0,0 0,-5.2486 0,-5.2486 z"
       inkscape:connector-curvature="0" />
    <path
       style="fill:#2e3436;fill-opacity:1;stroke:none"
       id="path3991"
       d="m 229.68276,82.478838 c 0.2986,6.281303 0.82208,12.558552 1.31922,18.831332 0.70209,8.94859 1.4975,17.88997 2.40419,26.81915 0.0954,0.90336 0.19076,1.8067 0.28614,2.71006 0,0 -4.91795,0.42419 -4.91795,0.42419 l 0,0 c -0.0607,-0.90634 -0.12142,-1.81268 -0.18213,-2.71903 -0.63575,-8.95255 -1.38318,-17.89807 -2.22366,-26.83472 -0.58426,-6.265266 -1.1434,-12.539439 -1.92483,-18.779097 0,0 5.23902,-0.451885 5.23902,-0.451885 z"
       inkscape:connector-curvature="0" />
    <path
       style="fill:#2e3436;fill-opacity:1;stroke:none"
       id="path3997"
       d="m 105.12205,101.91298 c 2.66597,3.26106 3.85839,7.41843 5.10112,11.36549 2.29426,8.10694 3.59869,16.44521 4.9641,24.74565 0.91674,5.16593 1.7376,10.35671 2.91872,15.47133 0,0 -4.9493,0.94555 -4.9493,0.94555 l 0,0 c -0.81109,-5.23603 -1.40915,-10.50522 -2.29946,-15.72985 -1.23326,-8.07084 -2.54321,-16.16637 -5.04254,-23.96165 -0.76491,-2.1598 -1.02254,-3.03006 -1.91305,-5.04898 -0.54237,-1.22967 -1.17292,-2.59213 -2.07101,-3.62148 -0.13568,-0.1555 -0.30479,-0.27831 -0.45718,-0.41746 0,0 3.7486,-3.7486 3.7486,-3.7486 z"
       inkscape:connector-curvature="0" />
    <path
       style="fill:#2e3436;fill-opacity:1;stroke:none"
       id="path4015"
       d="m 94.084738,71.054833 c -0.800614,-0.467549 -1.658028,-0.810392 -2.528595,-1.122146 -1.685936,-0.553677 -3.463911,-0.54908 -5.216593,-0.4931 -2.591526,0.217973 -5.178026,0.741849 -7.551069,1.836769 -0.416173,0.192022 -0.812006,0.425367 -1.218008,0.63805 -1.146009,0.690979 -2.225471,1.536402 -2.765818,2.800067 -0.284904,0.666281 -0.252047,0.83239 -0.332725,1.540422 0.02001,0.277018 0.01631,0.556777 0.06002,0.831055 0.227021,1.424306 0.944665,2.775656 1.817894,3.905103 0.269459,0.348523 0.574514,0.668011 0.861772,1.002017 0.337689,0.294235 0.654395,0.614448 1.013067,0.882707 1.535177,1.148187 3.414453,1.822804 5.30088,2.097067 0.504465,0.07334 1.015802,0.0872 1.523703,0.130797 2.37499,0.08078 4.736248,-0.314895 6.896935,-1.324738 0.335963,-0.157019 0.653507,-0.35076 0.98026,-0.52614 0.779484,-0.490671 1.449664,-1.102035 2.004244,-1.832702 0,0 1.94755,1.639464 1.94755,1.639464 l 0,0 c -0.8313,0.923938 -1.7631,1.731953 -2.86395,2.328204 -0.39952,0.194687 -0.790636,0.407675 -1.198572,0.58406 -2.522248,1.090576 -5.229071,1.542068 -7.971279,1.417359 -1.580553,-0.146721 -1.988232,-0.116377 -3.524249,-0.529459 -2.225693,-0.598556 -4.242004,-1.712421 -5.883125,-3.335542 -0.344004,-0.397634 -0.709661,-0.777521 -1.032013,-1.192902 -1.143292,-1.473238 -2.059425,-3.252069 -2.301828,-5.122114 -0.05585,-0.430874 -0.03213,-0.868364 -0.04819,-1.302546 0.180221,-1.105363 0.145386,-1.400796 0.641451,-2.419855 0.804589,-1.652854 2.253622,-2.777086 3.819754,-3.659038 1.320559,-0.645956 1.578792,-0.818575 2.997911,-1.316344 2.167248,-0.760183 4.438287,-1.175032 6.715574,-1.427374 2.067472,-0.123851 4.16748,-0.209652 6.161461,0.458468 0.908644,0.310463 1.803545,0.653909 2.678465,1.05007 0,0 -0.98493,2.462321 -0.98493,2.462321 z"
       inkscape:connector-curvature="0" />
    <path
       style="fill:#2e3436;fill-opacity:1;stroke:none"
       id="path4017"
       d="m 88.872479,45.179416 c 0.300686,1.829213 0.719346,3.638608 1.106446,5.451314 0.515788,2.332082 0.950026,4.684557 1.560103,6.994995 0.320038,1.21202 0.684104,2.411985 1.025682,3.618111 0.80817,2.649992 1.586148,5.306294 2.183538,8.01247 0.45375,2.136631 0.94091,4.265792 1.44199,6.391728 0.35521,1.593414 0.86145,3.144754 1.41156,4.679678 0.27366,0.848014 0.63533,1.662662 0.92863,2.503199 0.22076,0.594259 0.41522,1.199353 0.54579,1.819976 0.10759,0.553006 0.28538,1.087724 0.44122,1.628053 0,0 -2.52108,0.698923 -2.52108,0.698923 l 0,0 c -0.15883,-0.602665 -0.35624,-1.195395 -0.48437,-1.806022 -0.0988,-0.519524 -0.27994,-1.017797 -0.44632,-1.518553 -0.26468,-0.84318 -0.62869,-1.653246 -0.85539,-2.509673 -0.5295,-1.629492 -1.04028,-3.267176 -1.39741,-4.944814 -0.487874,-2.142143 -0.970102,-4.28582 -1.423658,-6.435538 -0.556448,-2.666268 -1.261873,-5.296217 -1.99483,-7.918777 -0.332176,-1.22897 -0.687746,-2.45157 -1.015773,-3.681654 -0.619154,-2.321797 -1.11984,-4.673362 -1.685956,-7.008153 -0.446896,-1.825097 -0.908098,-3.645607 -1.397387,-5.459819 0,0 2.577215,-0.515444 2.577215,-0.515444 z"
       inkscape:connector-curvature="0" />
    <path
       style="fill:#2e3436;fill-opacity:1;stroke:none"
       id="path4019"
       d="m 112.83474,69.983404 c -0.54256,-0.281271 -1.16727,-0.318113 -1.76509,-0.373007 -0.93394,-0.07268 -1.86919,-0.08255 -2.80334,-0.01982 -0.63379,0.04958 -1.22726,0.238014 -1.76055,0.581804 -0.54589,0.32665 -1.03303,0.705463 -1.4572,1.177027 -0.34817,0.35314 -0.50297,0.74114 -0.59313,1.21593 -0.095,0.674217 -0.0929,1.357611 -0.0963,2.037094 0.003,0.744373 0.21373,1.456469 0.46554,2.149366 0.24878,0.604349 0.63917,1.117567 1.11686,1.55687 0.40555,0.383664 0.89197,0.679599 1.42126,0.856983 0.49745,0.114605 1.01425,0.126573 1.52228,0.109238 0.79439,-0.06521 1.51366,-0.412378 2.20698,-0.779737 0.67825,-0.374163 1.33907,-0.784547 1.95674,-1.252735 0.23347,-0.206372 0.398,-0.469276 0.52957,-0.752641 0.11941,-0.310567 0.12991,-0.649256 0.14788,-0.977763 0.0257,-0.567701 0.0148,-1.135985 0.0127,-1.70399 0.001,-0.448479 -0.0404,-0.902887 -0.21523,-1.319118 -0.32542,-0.614677 -0.81251,-1.1222 -1.28252,-1.627308 -0.47634,-0.502679 -1.03014,-0.907646 -1.61798,-1.267593 -0.36796,-0.198844 -0.76247,-0.350275 -1.16431,-0.46565 0,0 0.78649,-2.496789 0.78649,-2.496789 l 0,0 c 0.59986,0.199067 1.19268,0.434113 1.73696,0.758506 0.78384,0.485989 1.51609,1.039117 2.14555,1.718369 0.6949,0.748765 1.39645,1.516623 1.82378,2.456571 0.26306,0.719281 0.42675,1.463488 0.39987,2.234812 0.002,0.617289 10e-4,1.234806 -0.0123,1.851943 -0.0367,0.69641 -0.11681,1.396073 -0.42817,2.03111 -0.33525,0.634725 -0.7303,1.236913 -1.32473,1.66082 -0.73539,0.523929 -1.51512,0.983967 -2.30646,1.417631 -1.03635,0.538429 -2.11485,1.020465 -3.29826,1.094627 -0.85276,0.03371 -1.72099,0.02508 -2.53935,-0.248157 -0.84141,-0.334697 -1.62086,-0.800993 -2.28001,-1.428425 -0.75732,-0.734621 -1.38997,-1.564897 -1.76523,-2.562129 -0.34305,-0.976683 -0.61543,-1.980914 -0.62053,-3.024611 0.002,-0.855682 -0.0111,-1.717614 0.13767,-2.563638 0.21332,-0.961681 0.54202,-1.711266 1.22214,-2.438192 0.61302,-0.656412 1.26935,-1.174671 2.04029,-1.636357 0.90902,-0.525357 1.87654,-0.880926 2.93653,-0.93107 1.05858,-0.05624 2.11736,-0.04101 3.17533,0.02981 0.85692,0.06894 1.72369,0.150338 2.5312,0.467893 0,0 -0.98493,2.462321 -0.98493,2.462321 z"
       inkscape:connector-curvature="0" />
    <path
       style="fill:#2e3436;fill-opacity:1;stroke:none"
       id="path4021"
       d="m 123.33306,66.562558 c 0.10143,0.73418 0.27425,1.455966 0.43812,2.178055 0.22501,0.981574 0.48963,1.954241 0.69295,2.940541 0.21277,0.871334 0.31808,1.761623 0.44326,2.648126 0.0846,0.825272 0.20098,1.647168 0.27124,2.473957 0.048,0.749119 0.1523,1.492865 0.21849,2.240528 0.0442,0.495064 0.0617,0.991779 0.069,1.488569 0.0327,0.165863 -0.0487,0.833575 0.0138,0.936851 0.0576,0.365309 0.15573,0.721846 0.22654,1.084763 0.0544,0.316421 0.0744,0.634526 0.13752,0.948856 0,0 -2.58575,0.50813 -2.58575,0.50813 l 0,0 c -0.062,-0.320537 -0.1003,-0.642106 -0.13596,-0.966205 -0.0771,-0.423783 -0.21137,-0.835182 -0.26124,-1.264207 -0.037,-0.408041 -0.033,-0.81538 -0.0288,-1.22503 -10e-4,-0.436242 -0.005,-0.872678 -0.0317,-1.308254 -0.0496,-0.741296 -0.1478,-1.477792 -0.19669,-2.219029 -0.0706,-0.783419 -0.17644,-1.562883 -0.25571,-2.34539 -0.11251,-0.833559 -0.20917,-1.670543 -0.39929,-2.491161 -0.19196,-0.964082 -0.45238,-1.913303 -0.68023,-2.86928 -0.18412,-0.774504 -0.36206,-1.550464 -0.54811,-2.324399 0,0 2.61252,-0.435421 2.61252,-0.435421 z"
       inkscape:connector-curvature="0" />
    <path
       style="fill:#2e3436;fill-opacity:1;stroke:none"
       id="path4023"
       d="m 122.66455,69.468529 c 0.60145,-0.625752 1.34182,-1.101052 2.05693,-1.586416 0.66004,-0.397271 1.27615,-0.877338 1.96639,-1.224162 0.57033,-0.286572 0.95105,-0.408947 1.55133,-0.632281 1.79509,-0.641796 3.69974,-0.799706 5.5875,-0.913729 1.19643,-0.05364 2.4785,-0.16935 3.60738,0.331159 0.19349,0.08579 0.3698,0.205991 0.5547,0.308987 1.0684,0.757874 1.47646,1.958694 1.83216,3.160659 0.41725,1.594442 0.64084,3.236416 0.83672,4.871092 0.17644,1.632354 0.22534,3.274069 0.28949,4.913527 0.049,0.880684 0.0316,1.762527 0.0296,2.643986 0,0 -2.57809,-0.0056 -2.57809,-0.0056 l 0,0 c 0.002,-0.863873 -0.008,-1.727747 0.0134,-2.591475 0.004,-1.554616 -0.0401,-3.11109 -0.21307,-4.657274 -0.18908,-1.487598 -0.39654,-2.98501 -0.80472,-4.430182 -0.18769,-0.585995 -0.36201,-1.216869 -0.75989,-1.700882 -0.64914,-0.567589 -1.88623,-0.363371 -2.66632,-0.375384 -1.63257,0.08804 -3.28246,0.214176 -4.8328,0.775548 -0.36502,0.145872 -0.81674,0.313667 -1.17267,0.498436 -0.62895,0.3265 -1.18948,0.771452 -1.78827,1.146808 -0.49747,0.345266 -1.01901,0.68751 -1.4429,1.120718 0,0 -2.06694,-1.653554 -2.06694,-1.653554 z"
       inkscape:connector-curvature="0" />
    <path
       style="fill:#2e3436;fill-opacity:1;stroke:none"
       id="path4025"
       d="m 149.03927,54.680132 c 0.0166,1.239031 -0.22556,2.440565 -0.52199,3.636911 -0.30926,1.212887 -0.62362,2.429742 -1.08488,3.595796 -0.24323,0.614904 -0.38436,0.88013 -0.66606,1.460905 -0.30589,0.595347 -0.59023,1.23687 -1.06727,1.722081 -0.27813,0.282905 -0.38214,0.335638 -0.68613,0.54373 -0.23216,0.16605 -0.1053,0.0791 -0.38232,0.258288 0,0 -1.39636,-2.229933 -1.39636,-2.229933 l 0,0 c 0.20128,-0.118776 0.0862,-0.04754 0.34196,-0.219184 0.0384,-0.02218 0.0746,-0.04857 0.11505,-0.06654 0.0138,-0.0062 0.0333,0.0047 0.0453,-0.0046 0.36555,-0.285684 0.54534,-0.763318 0.78162,-1.14134 0.75139,-1.413417 1.26683,-2.91826 1.57661,-4.490886 0.22482,-1.010903 0.4201,-2.024458 0.30542,-3.065213 0,0 2.6391,0 2.6391,0 z"
       inkscape:connector-curvature="0" />
    <path
       style="fill:#2e3436;fill-opacity:1;stroke:none"
       id="path4027"
       d="m 158.69585,54.688139 c 0.33734,2.56001 0.5589,5.134176 0.76994,7.707164 0.31718,4.537391 0.4368,9.085569 0.59813,13.630398 0.0192,0.514017 0.0384,1.028033 0.0575,1.54205 0,0 -2.32324,0.03019 -2.32324,0.03019 l 0,0 c 0.006,-0.510873 0.0117,-1.021747 0.0176,-1.532621 0.002,-4.489902 -0.0915,-8.984994 -0.54226,-13.455576 -0.28448,-2.49478 -0.56737,-5.008559 -1.15875,-7.452312 0,0 2.58109,-0.46929 2.58109,-0.46929 z"
       inkscape:connector-curvature="0" />
    <path
       style="fill:#2e3436;fill-opacity:1;stroke:none"
       id="path4029"
       d="m 148.50073,67.317917 c 0.36066,-0.112843 0.27977,-0.07872 0.74787,-0.293198 2.05873,-0.943277 4.1257,-1.867142 6.19317,-2.791699 4.41255,-2.012167 8.87339,-3.915027 13.31226,-5.867979 0,0 0.8543,2.064525 0.8543,2.064525 l 0,0 c -4.49161,1.742133 -8.92518,3.640059 -13.25228,5.760159 -1.68654,0.822579 -3.38628,1.627054 -5.02789,2.538053 -0.69766,0.387164 -0.95604,0.58288 -1.617,0.929664 -0.12131,0.06365 -0.24884,0.114658 -0.37326,0.171986 0,0 -0.83717,-2.511511 -0.83717,-2.511511 z"
       inkscape:connector-curvature="0" />
    <path
       style="fill:#2e3436;fill-opacity:1;stroke:none"
       id="path4066"
       d="m 233.85291,142.79697 c -0.0147,1.95338 0.16155,3.8982 0.32446,5.84258 0.144,1.4971 0.24948,2.99724 0.31149,4.49991 0,0 -4.89016,0.12157 -4.89016,0.12157 l 0,0 c -0.01,-1.41845 -0.0606,-2.83616 -0.15562,-4.2516 -0.15005,-2.07267 -0.31363,-4.14512 -0.52471,-6.21246 0,0 4.93454,0 4.93454,0 z"
       inkscape:connector-curvature="0" />
  </g>
</svg>
