<?xml version="1.0" encoding="UTF-8" standalone="no"?>
<!-- Created with Inkscape (http://www.inkscape.org/) -->

<svg
   xmlns:dc="http://purl.org/dc/elements/1.1/"
   xmlns:cc="http://creativecommons.org/ns#"
   xmlns:rdf="http://www.w3.org/1999/02/22-rdf-syntax-ns#"
   xmlns:svg="http://www.w3.org/2000/svg"
   xmlns="http://www.w3.org/2000/svg"
   xmlns:sodipodi="http://sodipodi.sourceforge.net/DTD/sodipodi-0.dtd"
   xmlns:inkscape="http://www.inkscape.org/namespaces/inkscape"
   width="128"
   height="128"
   id="svg2"
   version="1.1"
   inkscape:version="0.48.3.1 r9886"
   sodipodi:docname="haste.svg"
   inkscape:export-filename="/home/zack/Programs/arena-data/icons/haste.png"
   inkscape:export-xdpi="90"
   inkscape:export-ydpi="90">
  <defs
     id="defs4" />
  <sodipodi:namedview
     id="base"
     pagecolor="#000000"
     bordercolor="#666666"
     borderopacity="1.0"
     inkscape:pageopacity="0"
     inkscape:pageshadow="2"
     inkscape:zoom="5.6"
     inkscape:cx="83.675184"
     inkscape:cy="61.952089"
     inkscape:document-units="px"
     inkscape:current-layer="layer1"
     showgrid="false"
     inkscape:window-width="1920"
     inkscape:window-height="993"
     inkscape:window-x="0"
     inkscape:window-y="27"
     inkscape:window-maximized="1"
     showguides="true"
     inkscape:guide-bbox="true" />
  <metadata
     id="metadata7">
    <rdf:RDF>
      <cc:Work
         rdf:about="">
        <dc:format>image/svg+xml</dc:format>
        <dc:type
           rdf:resource="http://purl.org/dc/dcmitype/StillImage" />
        <dc:title />
      </cc:Work>
    </rdf:RDF>
  </metadata>
  <g
     inkscape:label="Layer 1"
     inkscape:groupmode="layer"
     id="layer1"
     transform="translate(0,-924.36218)">
    <path
       style="fill:#729fcf;fill-opacity:1;stroke:none"
       d="m 64.028508,938.26705 -38.183766,38.18377 c -29.4629661,34.33868 21.302559,62.32888 38.183766,38.18368 16.906642,24.1525 67.496832,-3.757 38.183762,-38.18368 z"
       id="path2985"
       inkscape:connector-curvature="0"
       sodipodi:nodetypes="ccccc" />
    <path
       style="fill:#729fcf;stroke:none"
       d="m 64,1014.0036 c -7.052246,8.1512 -7.253778,18.7002 -21.156735,24.4537 l 42.313475,0 C 70.876237,1032.6677 71.052246,1022.1548 64,1014.0036 z"
       id="path6078"
       inkscape:connector-curvature="0"
       sodipodi:nodetypes="cccc" />
    <path
       style="fill:#204a87;fill-opacity:1;stroke:none"
       d="m 49.86534,38.021295 c -6.658241,6.722355 -13.428318,13.376596 -19.927455,20.228794 -3.658162,4.743818 -6.61945,10.583391 -5.879072,16.723277 0.733722,6.78908 6.07107,12.298841 12.078708,15.043362 3.450096,1.60197 7.241939,2.433336 11.043667,2.139611 3.519011,-0.06025 6.945299,-1.638786 9.524999,-4.01128 5.185726,-2.830747 12.425799,-1.957066 16.589276,1.528548 4.747968,3.31445 11.124914,3.08308 16.413623,1.243893 C 96.123852,88.636004 101.97602,83.607354 103.64882,76.821518 94.671691,93.537528 53.59336,93.245 64.039447,23.824866 59.314746,28.557009 54.590042,33.289152 49.86534,38.021295 z"
       id="path2984"
       inkscape:connector-curvature="0"
       transform="translate(0,924.36218)"
       sodipodi:nodetypes="ccccccccccc" />
    <path
       style="fill:#204a87;stroke:none"
       d="m 59.022809,1011.4666 c 1.734419,0.049 3.583666,1.2475 3.724647,3.1003 0.436216,2.9851 -0.817745,5.8459 -1.797792,8.5987 -1.355631,3.8725 -3.231716,7.69 -6.280941,10.5162 -0.909923,0.8496 -1.913175,1.6018 -2.997439,2.2148 3.369912,-0.048 6.751203,0.1225 10.114468,-0.012 -2.421319,-0.3228 -4.891588,-0.2807 -7.310893,-0.643 0.828211,-0.3964 1.872121,-0.882 2.611042,-1.579 1.964869,-1.7288 2.86226,-4.2627 4.122215,-6.4828 2.212958,-4.5863 2.563776,-9.3542 3.465059,-13.9279 0.394595,-3.0849 1.962876,-1.6675 3.049269,-2.0361 -2.310485,-1.0069 -5.041942,-1.4988 -7.421308,-0.4231 -0.44284,0.1894 -0.875329,0.4143 -1.278327,0.674 z"
       id="path2993"
       inkscape:connector-curvature="0"
       sodipodi:nodetypes="cccccccccccccc" />
  </g>
</svg>
