<?xml version="1.0" encoding="UTF-8" standalone="no"?>
<!-- Created with Inkscape (http://www.inkscape.org/) -->

<svg
   xmlns:dc="http://purl.org/dc/elements/1.1/"
   xmlns:cc="http://creativecommons.org/ns#"
   xmlns:rdf="http://www.w3.org/1999/02/22-rdf-syntax-ns#"
   xmlns:svg="http://www.w3.org/2000/svg"
   xmlns="http://www.w3.org/2000/svg"
   xmlns:sodipodi="http://sodipodi.sourceforge.net/DTD/sodipodi-0.dtd"
   xmlns:inkscape="http://www.inkscape.org/namespaces/inkscape"
   width="128"
   height="128"
   id="svg4715"
   version="1.1"
   inkscape:version="0.48.3.1 r9886"
   sodipodi:docname="iconw_chaingun.svg"
   inkscape:export-filename="/home/zack/Programs/arena-data/icons/iconw_chaingun.png"
   inkscape:export-xdpi="90"
   inkscape:export-ydpi="90">
  <defs
     id="defs4717">
    <inkscape:perspective
       sodipodi:type="inkscape:persp3d"
       inkscape:vp_x="0 : 64 : 1"
       inkscape:vp_y="0 : 1000 : 0"
       inkscape:vp_z="128 : 64 : 1"
       inkscape:persp3d-origin="64 : 42.666667 : 1"
       id="perspective3209" />
  </defs>
  <sodipodi:namedview
     id="base"
     pagecolor="#000000"
     bordercolor="#666666"
     borderopacity="1.0"
     inkscape:pageopacity="0"
     inkscape:pageshadow="2"
     inkscape:zoom="5.6568542"
     inkscape:cx="46.199149"
     inkscape:cy="67.637182"
     inkscape:document-units="px"
     inkscape:current-layer="layer1"
     showgrid="false"
     inkscape:window-width="1920"
     inkscape:window-height="993"
     inkscape:window-x="0"
     inkscape:window-y="27"
     inkscape:window-maximized="1" />
  <metadata
     id="metadata4720">
    <rdf:RDF>
      <cc:Work
         rdf:about="">
        <dc:format>image/svg+xml</dc:format>
        <dc:type
           rdf:resource="http://purl.org/dc/dcmitype/StillImage" />
        <dc:title></dc:title>
      </cc:Work>
    </rdf:RDF>
  </metadata>
  <g
     inkscape:label="Layer 1"
     inkscape:groupmode="layer"
     id="layer1"
     transform="translate(0,-924.36218)">
    <path
       inkscape:connector-curvature="0"
       style="fill:#edd400;fill-opacity:1;stroke:none"
       d="m 17.299883,955.70009 c 0.0258,2.31412 5.888572,4.79066 24.381606,6.53748 l 6.269554,0 6.992964,1.82193 0,0.40189 55.756193,0 0,-17.52261 -55.756193,0 0,0.37511 -6.992964,1.84872 -6.269554,0 c -18.545986,2.06481 -24.407439,4.22334 -24.381606,6.53748 z"
       id="rect3253" />
    <path
       inkscape:connector-curvature="0"
       style="fill:#edd400;fill-opacity:1;stroke:none"
       d="m 17.299888,977.42026 c 0.0258,2.31412 5.888571,4.79067 24.381607,6.53748 l 6.269556,0 6.992965,1.82192 0,0.4019 55.756184,0 0,-17.5226 -55.756184,0 0,0.3751 -6.992965,1.84872 -6.269556,0 c -18.545987,2.0648 -24.407441,4.22335 -24.381607,6.53748 z"
       id="rect3253-0" />
    <path
       inkscape:connector-curvature="0"
       style="fill:#edd400;fill-opacity:1;stroke:none"
       d="m 17.299888,999.14047 c 0.0258,2.31413 5.888571,4.79073 24.381611,6.53743 l 6.269554,0 6.992966,1.8219 0,0.4019 55.756181,0 0,-17.52257 -55.756181,0 0,0.3751 -6.992966,1.84872 -6.269554,0 c -18.545991,2.06483 -24.407445,4.22336 -24.381611,6.53752 z"
       id="rect3253-0-3" />
    <path
       inkscape:connector-curvature="0"
       style="fill:#edd400;fill-opacity:1;stroke:none"
       d="m 17.299888,1020.8605 c 0.0258,2.3142 5.888571,4.7907 24.381615,6.5375 l 6.269554,0 6.992965,1.822 0,0.4018 55.756178,0 0,-17.5225 -55.756178,0 0,0.3751 -6.992965,1.8486 -6.269554,0 c -18.545995,2.0649 -24.407449,4.2234 -24.381615,6.5375 z"
       id="rect3253-0-3-5" />
    <rect
       style="fill:#888a85;fill-opacity:1;stroke:none"
       id="rect3225"
       width="13.564971"
       height="6.7445946"
       x="79.622238"
       y="937.89117" />
    <rect
       style="fill:#888a85;fill-opacity:1;stroke:none"
       id="rect5134"
       width="38.612492"
       height="87.942177"
       x="-105.54979"
       y="944.30927"
       transform="scale(-1,1)" />
    <rect
       style="fill:#888a85;fill-opacity:1;stroke:none"
       id="rect3225-8-2"
       width="13.564971"
       height="12.27122"
       x="79.727753"
       y="1003.5789" />
    <rect
       style="fill:#888a85;fill-opacity:1;stroke:none"
       id="rect3225-8-2-7"
       width="13.564971"
       height="12.27122"
       x="79.727753"
       y="981.7439" />
    <rect
       style="fill:#888a85;fill-opacity:1;stroke:none"
       id="rect3225-8-2-7-7"
       width="13.564971"
       height="12.27122"
       x="79.727753"
       y="959.90894" />
    <rect
       style="fill:#888a85;fill-opacity:1;stroke:none"
       id="rect3225-8-2-7-7-7"
       width="13.564971"
       height="12.27122"
       x="79.727753"
       y="938.07391" />
    <rect
       style="fill:#888a85;fill-opacity:1;stroke:none"
       id="rect3225-8-2-7-7-7-5"
       width="13.564971"
       height="12.27122"
       x="79.727753"
       y="1025.4139" />
  </g>
</svg>
