<?xml version="1.0" encoding="UTF-8" standalone="no"?>
<!-- Created with Inkscape (http://www.inkscape.org/) -->

<svg
   xmlns:dc="http://purl.org/dc/elements/1.1/"
   xmlns:cc="http://creativecommons.org/ns#"
   xmlns:rdf="http://www.w3.org/1999/02/22-rdf-syntax-ns#"
   xmlns:svg="http://www.w3.org/2000/svg"
   xmlns="http://www.w3.org/2000/svg"
   xmlns:sodipodi="http://sodipodi.sourceforge.net/DTD/sodipodi-0.dtd"
   xmlns:inkscape="http://www.inkscape.org/namespaces/inkscape"
   width="128"
   height="128"
   id="svg3049"
   version="1.1"
   inkscape:version="0.48.3.1 r9886"
   sodipodi:docname="iconw_shotgun.svg"
   inkscape:export-filename="/home/zack/Programs/arena-data/icons/iconw_shotgun.png"
   inkscape:export-xdpi="90"
   inkscape:export-ydpi="90">
  <defs
     id="defs3051" />
  <sodipodi:namedview
     id="base"
     pagecolor="#000000"
     bordercolor="#666666"
     borderopacity="1.0"
     inkscape:pageopacity="0"
     inkscape:pageshadow="2"
     inkscape:zoom="3.959798"
     inkscape:cx="113.52013"
     inkscape:cy="56.599529"
     inkscape:document-units="px"
     inkscape:current-layer="layer1"
     showgrid="false"
     inkscape:window-width="1920"
     inkscape:window-height="993"
     inkscape:window-x="0"
     inkscape:window-y="27"
     inkscape:window-maximized="1" />
  <metadata
     id="metadata3054">
    <rdf:RDF>
      <cc:Work
         rdf:about="">
        <dc:format>image/svg+xml</dc:format>
        <dc:type
           rdf:resource="http://purl.org/dc/dcmitype/StillImage" />
        <dc:title />
      </cc:Work>
    </rdf:RDF>
  </metadata>
  <g
     inkscape:label="Layer 1"
     inkscape:groupmode="layer"
     id="layer1"
     transform="translate(0,-924.36218)">
    <path
       sodipodi:type="arc"
       style="fill:#ce5c00;fill-opacity:1;stroke:none"
       id="path3077-0-6"
       sodipodi:cx="30.803572"
       sodipodi:cy="46.30357"
       sodipodi:rx="9.9107141"
       sodipodi:ry="8.6607141"
       d="m 40.714286,46.30357 a 9.9107141,8.6607141 0 1 1 -19.821428,0 9.9107141,8.6607141 0 1 1 19.821428,0 z"
       transform="matrix(-1.6435693,0,0,-0.26151675,89.181571,951.94042)" />
    <rect
       style="fill:#ce5c00;fill-opacity:1;stroke:none"
       id="rect3099-6"
       width="32.577892"
       height="76.708076"
       x="-54.842247"
       y="-1016.6473"
       transform="scale(-1,-1)" />
    <rect
       style="fill:#c4a000;fill-opacity:1;stroke:none"
       id="rect3121-7"
       width="32.577892"
       height="20.652039"
       x="-54.842712"
       y="-1036.1312"
       transform="scale(-1,-1)" />
    <path
       sodipodi:type="arc"
       style="fill:#c4a000;fill-opacity:1;stroke:none"
       id="path3077-7"
       sodipodi:cx="30.803572"
       sodipodi:cy="46.30357"
       sodipodi:rx="9.9107141"
       sodipodi:ry="8.6607141"
       d="m 40.714286,46.30357 a 9.9107141,8.6607141 0 1 1 -19.821428,0 9.9107141,8.6607141 0 1 1 19.821428,0 z"
       transform="matrix(-1.6435693,0,0,-0.24089819,89.181571,1047.3683)" />
    <path
       sodipodi:type="arc"
       style="fill:#c4a000;fill-opacity:1;stroke:none"
       id="path3077-0-8-3"
       sodipodi:cx="30.803572"
       sodipodi:cy="46.30357"
       sodipodi:rx="9.9107141"
       sodipodi:ry="8.6607141"
       d="m 40.714286,46.30357 a 9.9107141,8.6607141 0 1 1 -19.821428,0 9.9107141,8.6607141 0 1 1 19.821428,0 z"
       transform="matrix(-1.6435693,0,0,-0.15070502,89.181571,1022.4677)" />
    <path
       sodipodi:type="arc"
       style="fill:#ce5c00;fill-opacity:1;stroke:none"
       id="path3077-0-6-0"
       sodipodi:cx="30.803572"
       sodipodi:cy="46.30357"
       sodipodi:rx="9.9107141"
       sodipodi:ry="8.6607141"
       d="m 40.714286,46.30357 a 9.9107141,8.6607141 0 1 1 -19.821428,0 9.9107141,8.6607141 0 1 1 19.821428,0 z"
       transform="matrix(-1.6435693,0,0,-0.26151675,140.07422,951.94039)" />
    <rect
       style="fill:#ce5c00;fill-opacity:1;stroke:none"
       id="rect3099-6-3"
       width="32.577892"
       height="76.708076"
       x="-105.73489"
       y="-1016.6473"
       transform="scale(-1,-1)" />
    <rect
       style="fill:#c4a000;fill-opacity:1;stroke:none"
       id="rect3121-7-3"
       width="32.577892"
       height="20.652039"
       x="-105.73537"
       y="-1036.1312"
       transform="scale(-1,-1)" />
    <path
       sodipodi:type="arc"
       style="fill:#c4a000;fill-opacity:1;stroke:none"
       id="path3077-7-4"
       sodipodi:cx="30.803572"
       sodipodi:cy="46.30357"
       sodipodi:rx="9.9107141"
       sodipodi:ry="8.6607141"
       d="m 40.714286,46.30357 a 9.9107141,8.6607141 0 1 1 -19.821428,0 9.9107141,8.6607141 0 1 1 19.821428,0 z"
       transform="matrix(-1.6435693,0,0,-0.24089819,140.07422,1047.3683)" />
    <path
       sodipodi:type="arc"
       style="fill:#c4a000;fill-opacity:1;stroke:none"
       id="path3077-0-8-3-2"
       sodipodi:cx="30.803572"
       sodipodi:cy="46.30357"
       sodipodi:rx="9.9107141"
       sodipodi:ry="8.6607141"
       d="m 40.714286,46.30357 a 9.9107141,8.6607141 0 1 1 -19.821428,0 9.9107141,8.6607141 0 1 1 19.821428,0 z"
       transform="matrix(-1.6435693,0,0,-0.15070502,140.07422,1022.4677)" />
  </g>
</svg>
