<?xml version="1.0" encoding="UTF-8" standalone="no"?>
<!-- Created with Inkscape (http://www.inkscape.org/) -->

<svg
   xmlns:dc="http://purl.org/dc/elements/1.1/"
   xmlns:cc="http://creativecommons.org/ns#"
   xmlns:rdf="http://www.w3.org/1999/02/22-rdf-syntax-ns#"
   xmlns:svg="http://www.w3.org/2000/svg"
   xmlns="http://www.w3.org/2000/svg"
   xmlns:xlink="http://www.w3.org/1999/xlink"
   xmlns:sodipodi="http://sodipodi.sourceforge.net/DTD/sodipodi-0.dtd"
   xmlns:inkscape="http://www.inkscape.org/namespaces/inkscape"
   width="128"
   height="128"
   id="svg3138"
   version="1.1"
   inkscape:version="0.48.0 r9654"
   sodipodi:docname="invis.svg"
   inkscape:export-filename="/home/zack/Turtle_Arena_svn/trunk/base/icons/invis.png"
   inkscape:export-xdpi="90"
   inkscape:export-ydpi="90">
  <defs
     id="defs3140">
    <linearGradient
       inkscape:collect="always"
       id="linearGradient3148">
      <stop
         style="stop-color:#eeeeec;stop-opacity:1;"
         offset="0"
         id="stop3150" />
      <stop
         style="stop-color:#eeeeec;stop-opacity:0;"
         offset="1"
         id="stop3152" />
    </linearGradient>
    <radialGradient
       inkscape:collect="always"
       xlink:href="#linearGradient3148"
       id="radialGradient3156"
       cx="42.609863"
       cy="90.414932"
       fx="42.609863"
       fy="90.414932"
       r="47.443757"
       gradientTransform="matrix(1.4736403,-0.50798226,0.57434003,1.542041,-69.53239,-28.437451)"
       gradientUnits="userSpaceOnUse" />
  </defs>
  <sodipodi:namedview
     id="base"
     pagecolor="#ffffff"
     bordercolor="#666666"
     borderopacity="1.0"
     inkscape:pageopacity="0.0"
     inkscape:pageshadow="2"
     inkscape:zoom="3.9590209"
     inkscape:cx="91.763299"
     inkscape:cy="61.71727"
     inkscape:current-layer="layer1"
     showgrid="true"
     inkscape:grid-bbox="true"
     inkscape:document-units="px"
     inkscape:window-width="1152"
     inkscape:window-height="782"
     inkscape:window-x="0"
     inkscape:window-y="27"
     inkscape:window-maximized="1" />
  <metadata
     id="metadata3143">
    <rdf:RDF>
      <cc:Work
         rdf:about="">
        <dc:format>image/svg+xml</dc:format>
        <dc:type
           rdf:resource="http://purl.org/dc/dcmitype/StillImage" />
        <dc:title></dc:title>
      </cc:Work>
    </rdf:RDF>
  </metadata>
  <g
     id="layer1"
     inkscape:label="Layer 1"
     inkscape:groupmode="layer">
    <path
       sodipodi:type="arc"
       style="fill:url(#radialGradient3156);fill-opacity:1;stroke:#d3d7cf;stroke-width:1.68264973000000007;stroke-linecap:round;stroke-linejoin:miter;stroke-miterlimit:4;stroke-opacity:1;stroke-dasharray:none;stroke-dashoffset:0"
       id="path3146"
       sodipodi:cx="63.020634"
       sodipodi:cy="62.958664"
       sodipodi:rx="46.602432"
       sodipodi:ry="44.834316"
       d="m 109.62307,62.958664 a 46.602432,44.834316 0 1 1 -93.204869,0 46.602432,44.834316 0 1 1 93.204869,0 z"
       transform="matrix(1.0535146,0,0,1.0950617,-2.3931589,-4.9436205)" />
    <path
       style="fill:#d3d7cf;fill-opacity:1;stroke:none"
       id="path3158"
       d="m 52.534218,109.9064 c 0.47354,-0.35822 0.875995,-0.80205 1.292473,-1.2231 0.746509,-0.76535 1.510151,-1.51373 2.258622,-2.27706 1.11757,-1.11924 2.244839,-2.22852 3.40279,-3.30599 1.484023,-1.39775 3.132898,-2.58809 4.824075,-3.718085 1.18626,-0.772129 2.408777,-1.49902 3.686928,-2.110199 0.739664,-0.353689 1.142689,-0.503054 1.896512,-0.807289 0.305419,-0.111617 0.609818,-0.226069 0.916259,-0.33485 0.624411,-0.221654 1.124072,-0.393956 1.763407,-0.566299 0.811486,-0.21875 1.635477,-0.369144 2.463253,-0.508591 1.303637,-0.206816 2.624563,-0.248221 3.941798,-0.272727 0.847325,-0.01223 1.694698,-0.02047 2.542067,-0.02879 0.326639,0.02675 0.640259,-0.03271 0.959687,-0.08329 0.388093,-0.05272 0.78022,-0.04634 1.170844,-0.04641 0.443707,-0.01977 0.880893,-0.08574 1.319038,-0.153726 0.192972,-0.03632 0.37193,-0.119833 0.558292,-0.179377 0.214246,-0.06846 0.118299,-0.02219 0.224239,-0.07725 0.369503,-0.118139 0.746825,-0.211871 1.119701,-0.320057 0.495693,-0.163989 1.005789,-0.27739 1.500562,-0.444218 0.43555,-0.175103 0.869201,-0.356959 1.299772,-0.544702 0.488257,-0.23685 0.98965,-0.444885 1.480668,-0.674766 0.487861,-0.240586 0.964326,-0.50932 1.419276,-0.807536 0.640984,-0.399676 1.195351,-0.910045 1.743369,-1.425075 0.666079,-0.671285 1.333842,-1.340853 2.003699,-2.008334 0.828518,-0.786004 1.502228,-1.707723 2.091041,-2.681628 0.740777,-1.182766 1.203182,-2.496416 1.62276,-3.818398 0.4551,-1.504124 0.65839,-3.061152 0.91641,-4.605714 0.15958,-1.085147 0.43744,-2.146271 0.67488,-3.21535 0.1124,-0.50613 0.2132,-1.014769 0.32102,-1.521897 0.27863,-1.297077 0.37586,-2.621382 0.53035,-3.936425 0.14252,-1.055979 0.25878,-2.115028 0.38063,-3.173456 0.11735,-0.808075 0.27318,-1.612402 0.52721,-2.389066 0.25922,-0.78157 0.63673,-1.506547 1.07619,-2.199774 0.43355,-0.645171 0.94172,-1.23497 1.49197,-1.782384 0.37888,-0.384479 0.8052,-0.715366 1.21734,-1.06222 0.33344,-0.267621 0.69981,-0.49174 1.07384,-0.697593 0.22867,-0.111467 0.45777,-0.22112 0.6837,-0.335775 0.26183,-0.10854 0.51646,-0.208269 0.79403,-0.274961 0.33638,-0.07727 0.6698,-0.165114 1.00365,-0.252479 0.30298,-0.104982 0.61511,-0.177088 0.91651,-0.284694 0.1979,-0.06244 0.0954,-0.03292 0.3078,-0.08765 l 0.44572,1.813304 0,0 c -0.0943,0.02036 -0.0434,0.0078 -0.15248,0.03929 -0.34514,0.112912 -0.70053,0.187423 -1.04482,0.304032 -0.35623,0.09575 -0.71138,0.195112 -1.06779,0.290167 -0.1269,0.0027 -0.23781,0.118039 -0.36514,0.12599 -0.21241,0.104378 -0.42807,0.201678 -0.64365,0.298995 -0.27123,0.139079 -0.52962,0.302945 -0.77566,0.482713 -0.37738,0.307263 -0.76787,0.599224 -1.1181,0.938365 -0.45931,0.444057 -0.88092,0.929225 -1.24505,1.454708 -0.36441,0.568078 -0.66645,1.165849 -0.87888,1.808412 -0.23041,0.657162 -0.34319,1.349118 -0.47276,2.031507 -0.14177,1.053643 -0.26334,2.110045 -0.41053,3.163048 -0.16916,1.365242 -0.30452,2.737364 -0.59856,4.083337 -0.11102,0.518732 -0.21605,1.038772 -0.33231,1.556354 -0.23178,1.031876 -0.50176,2.056199 -0.65699,3.104003 -0.27008,1.622593 -0.48251,3.25837 -0.96223,4.83804 -0.45091,1.456007 -0.96544,2.896807 -1.764744,4.204217 -0.656726,1.096989 -1.407173,2.13573 -2.327581,3.02954 -0.674503,0.689522 -1.346035,1.381644 -2.02918,2.062721 -0.620887,0.592419 -1.2553,1.172769 -1.975738,1.644208 -0.530282,0.349682 -1.078754,0.675522 -1.652986,0.948337 -0.503599,0.229794 -1.009214,0.454228 -1.508375,0.694373 -0.482196,0.213417 -0.968865,0.418365 -1.461728,0.60551 -0.513057,0.167487 -1.040033,0.287375 -1.549348,0.466976 -0.325993,0.100128 -0.653256,0.196981 -0.979178,0.296121 -0.386162,0.136388 -0.781033,0.261817 -1.183289,0.338925 -0.520601,0.07195 -1.040697,0.149709 -1.566585,0.172269 -0.305784,0.0068 -0.6126,0.01304 -0.916513,0.05024 -0.41265,0.0571 -0.82502,0.09461 -1.242284,0.0612 -0.836555,-0.01583 -1.673156,-0.03377 -2.509923,-0.0314 -1.232923,0.01022 -2.468553,0.03614 -3.691797,0.206594 -0.760195,0.116933 -1.517496,0.243937 -2.263393,0.435471 -0.621899,0.159694 -1.057316,0.306963 -1.667486,0.518382 -0.290586,0.100686 -0.579166,0.207071 -0.868749,0.310606 -0.683319,0.267735 -1.09798,0.41719 -1.764761,0.731537 -1.221862,0.576033 -2.382316,1.278883 -3.514676,2.012113 -0.825217,0.55249 -1.653167,1.105 -2.437203,1.71579 -0.527572,0.41099 -0.980441,0.80991 -1.480036,1.2534 -0.224994,0.19973 -0.447154,0.40262 -0.670731,0.60394 -1.126669,1.06813 -2.221656,2.16856 -3.298885,3.28653 -0.735175,0.77879 -1.492992,1.53548 -2.23192,2.3107 -0.461753,0.48757 -0.90942,0.99063 -1.410874,1.43843 l -2.021953,-0.60934 z"
       inkscape:connector-curvature="0"
       sodipodi:nodetypes="cccccscssccccccccccccccccccccccccccccccccccccccccccccccscccccccccccccccccsscscsscccccc" />
    <path
       style="fill:#d3d7cf;fill-opacity:1;stroke:none"
       id="path3162"
       d="m 35.371585,103.1519 c 0.24556,-0.80801 0.499514,-1.61203 0.791065,-2.40472 0.46238,-1.087273 0.892771,-2.190366 1.414067,-3.251599 0.358276,-0.729363 0.671805,-1.283809 1.062638,-1.998766 1.078836,-1.829709 2.249936,-3.614519 3.605923,-5.252986 0.287154,-0.346975 0.591216,-0.679601 0.886825,-1.019402 1.200524,-1.257894 2.477669,-2.447939 3.803875,-3.572948 0.592593,-0.502691 1.224544,-0.990782 1.835447,-1.47117 1.366441,-1.013504 2.732979,-2.042325 4.221115,-2.874462 0.264875,-0.148113 0.537681,-0.281573 0.806522,-0.422359 1.256265,-0.624219 2.589997,-1.076031 3.924214,-1.501238 0.729578,-0.225183 1.465996,-0.415197 2.213723,-0.56727 0.708497,-0.132157 1.427011,-0.196129 2.140799,-0.290758 0.644396,-0.08512 1.28982,-0.162639 1.933618,-0.252568 0.704274,-0.08065 1.407026,-0.171627 2.109412,-0.267338 0.795619,-0.092 1.591374,-0.182197 2.386997,-0.274268 0.77962,-0.09991 1.560786,-0.174838 2.332467,-0.326904 0.928021,-0.181642 1.865858,-0.30503 2.799401,-0.455148 0.757578,-0.112674 1.51491,-0.22355 2.258303,-0.409856 0.630456,-0.179985 1.263168,-0.348754 1.884422,-0.559245 0.66567,-0.223967 1.326535,-0.456088 1.973289,-0.729912 0.718246,-0.313444 1.384897,-0.728097 2.046266,-1.144912 0.891442,-0.592829 1.799123,-1.159705 2.705934,-1.728449 1.03022,-0.625851 1.959917,-1.393937 2.837408,-2.216123 0.497952,-0.517439 0.98112,-1.058268 1.340833,-1.68354 0.101159,-0.175838 0.494762,-0.949963 0.569753,-1.096291 0.6663,-1.486824 1.2951,-2.991927 1.857682,-4.521277 0.537361,-1.477774 0.714064,-3.035392 0.811162,-4.593738 0.03626,-0.915439 0.07907,-1.837643 -0.03787,-2.749841 -0.05146,-0.401407 -0.143595,-0.75438 -0.234691,-1.147688 -0.170502,-0.60098 -0.368665,-1.202386 -0.705362,-1.733797 C 90.79771,52.397981 90.645888,52.227929 90.468482,52.012271 89.665073,51.072379 88.617857,50.390754 87.566551,49.761072 86.733394,49.291904 85.878166,48.855285 84.992405,48.492998 84.669709,48.361011 84.167239,48.191441 83.839333,48.077495 82.601556,47.674782 81.34814,47.326391 80.077704,47.044111 78.991652,46.81643 77.884443,46.730372 76.77759,46.6942 c -0.64182,-0.02624 -1.277728,-0.0263 -1.910989,0.08586 -0.64836,0.132532 -1.269828,0.363167 -1.882869,0.607338 -0.727115,0.292098 -1.451359,0.594531 -2.131208,0.985843 -1.007674,0.558011 -1.974377,1.185021 -2.962583,1.775919 -1.235562,0.714766 -2.406028,1.529287 -3.550024,2.380687 -1.15728,0.855332 -2.177003,1.871032 -3.22828,2.84823 -1.063533,0.96834 -2.082979,1.982756 -3.109499,2.98974 -1.028896,1.084979 -2.075889,2.151787 -3.147385,3.194625 -1.089521,1.086134 -2.175664,2.176026 -3.244185,3.282855 -1.000967,1.041204 -2.01153,2.073091 -3.016225,3.110756 -0.878944,0.897045 -1.726052,1.824581 -2.582646,2.742839 -0.64855,0.676085 -1.343386,1.307177 -2.036244,1.937529 -0.497535,0.41778 -0.990594,0.839307 -1.479778,1.266752 -0.406735,0.391584 -0.820552,0.776015 -1.217572,1.177521 -0.385501,0.380345 -0.774885,0.757197 -1.152018,1.145925 -0.355643,0.366853 -0.72577,0.719546 -1.082517,1.085188 -0.338631,0.351609 -0.684974,0.696324 -1.036629,1.035019 -0.378723,0.387631 -0.763714,0.768539 -1.136932,1.161592 -0.440002,0.44493 -0.890183,0.88153 -1.35925,1.295969 -0.557763,0.447702 -1.134688,0.873378 -1.726895,1.274471 -0.561253,0.34838 -1.120525,0.70049 -1.689352,1.036551 -0.451299,0.262777 -0.916613,0.50118 -1.409705,0.674325 -0.353708,0.126412 -0.717913,0.222841 -1.082155,0.314159 -0.202846,0.08462 -0.413438,0.144394 -0.619669,0.21204 -0.330963,0.07339 -0.648492,0.189732 -0.977336,0.270607 -0.342321,0.103845 -0.694998,0.167235 -1.037224,0.270996 -0.405065,0.13968 -0.83259,0.164177 -1.251324,0.232299 -0.355,0.08421 -0.723804,0.07459 -1.081513,0.133993 -0.307967,0.06 -0.618712,0.09938 -0.931511,0.121734 -0.193223,0.07068 -0.414527,0.09388 -0.622045,0.116341 -0.26851,0.0013 -0.530137,0.05432 -0.795047,0.09186 -0.172015,0.0085 -0.330439,0.07354 -0.428636,0.11573 -0.235113,0.08141 -0.454306,0.142644 -0.685694,0.211489 0.0091,-8.75e-4 0.0351,-0.0075 0.02733,-0.0026 -0.110465,0.06872 -0.290058,0.11431 -0.388793,0.147819 l -0.710479,-1.73201 0,0 c 0.182947,-0.06845 0.366923,-0.127894 0.545655,-0.20859 0.16178,-0.04583 0.321771,-0.09874 0.484313,-0.140267 0.287516,-0.119867 0.589938,-0.205732 0.900984,-0.235509 0.284233,-0.03818 0.56641,-0.0956 0.853769,-0.10545 0.2346,-0.02376 0.459783,-0.09235 0.694235,-0.118632 0.269301,-0.01627 0.536167,-0.05207 0.801913,-0.09873 0.352842,-0.04427 0.709291,-0.05814 1.059122,-0.127203 0.337035,-0.04854 0.679714,-0.06927 1.005363,-0.17763 0.370515,-0.106969 0.747178,-0.188533 1.117859,-0.294806 0.280583,-0.06866 0.548126,-0.182259 0.830893,-0.243787 0.25537,-0.08658 0.513612,-0.161879 0.770329,-0.244819 0.313906,-0.0724 0.625801,-0.157647 0.930403,-0.262379 0.378724,-0.114691 0.725197,-0.315186 1.075783,-0.494248 0.537153,-0.312858 1.063847,-0.643231 1.594461,-0.966844 0.528116,-0.357469 1.044302,-0.735496 1.540378,-1.136132 0.430853,-0.3795 0.836052,-0.788976 1.241749,-1.194801 0.39295,-0.408214 0.789892,-0.812074 1.184356,-1.218726 0.339809,-0.328527 0.669739,-0.667339 1.001051,-1.00431 0.35737,-0.360303 0.727522,-0.70778 1.080056,-1.073085 0.383407,-0.392469 0.776422,-0.775616 1.169196,-1.158631 0.430483,-0.429184 0.874166,-0.845099 1.315724,-1.262773 0.484647,-0.419601 0.971521,-0.835015 1.471008,-1.23711 0.667461,-0.588346 1.348133,-1.166142 1.960987,-1.812131 0.879649,-0.903092 1.738184,-1.826189 2.616271,-2.73075 1.004522,-1.035619 2.030558,-2.049573 3.030986,-3.089023 1.078864,-1.122848 2.178108,-2.226063 3.27668,-3.329578 1.070061,-1.040254 2.113105,-2.106953 3.140638,-3.189268 1.036303,-1.019628 2.060715,-2.051531 3.138125,-3.028385 1.096035,-1.019607 2.174023,-2.062929 3.377663,-2.958186 1.187675,-0.89087 2.406041,-1.738948 3.684754,-2.49548 0.999476,-0.600746 1.961795,-1.261381 2.97031,-1.847788 0.754158,-0.422445 1.54259,-0.776692 2.3452,-1.097219 0.729571,-0.295173 1.470338,-0.568848 2.245168,-0.720927 0.765379,-0.1309 1.533708,-0.14882 2.308227,-0.08696 1.203371,0.07587 2.404516,0.204256 3.586991,0.446523 1.339096,0.293409 2.662541,0.653314 3.965749,1.079643 0.471071,0.16661 0.825101,0.283987 1.287581,0.480205 0.94074,0.39913 1.846353,0.880726 2.736078,1.381185 1.230599,0.727569 2.465898,1.501353 3.409815,2.593551 0.285129,0.351875 0.431207,0.507403 0.666699,0.899713 0.407374,0.678652 0.640395,1.440964 0.840857,2.200786 0.116684,0.538246 0.194878,0.838388 0.259393,1.392811 0.115823,0.995347 0.06691,1.999437 0.0182,2.996897 -0.115141,1.720886 -0.3339,3.436733 -0.937242,5.064784 -0.582864,1.591288 -1.220032,3.162452 -1.891216,4.718434 -0.158795,0.322587 -0.459304,0.946821 -0.639549,1.257661 -0.437437,0.754374 -1.014967,1.40969 -1.628564,2.02451 -0.960833,0.890813 -1.976822,1.725701 -3.090906,2.419993 -0.9022,0.576551 -1.806341,1.149765 -2.687752,1.75804 -0.742493,0.471639 -1.491541,0.939693 -2.298714,1.294623 -0.689132,0.292843 -1.392704,0.544956 -2.101102,0.787314 -0.669441,0.223047 -1.348152,0.412467 -2.028818,0.597947 -0.795229,0.193197 -1.604281,0.305163 -2.415661,0.40799 -0.912892,0.140133 -1.825868,0.282167 -2.731227,0.465482 -0.818568,0.157921 -1.64571,0.240559 -2.471671,0.349667 -0.782235,0.08884 -1.564752,0.174047 -2.34569,0.273877 -0.700241,0.09752 -1.400527,0.193464 -2.102419,0.278294 -0.65055,0.09221 -1.303384,0.168198 -1.955571,0.247861 -0.672206,0.08449 -1.346732,0.154711 -2.013846,0.27526 -0.692878,0.138031 -1.376657,0.308768 -2.060162,0.487931 -1.246616,0.352261 -2.491586,0.738842 -3.66006,1.305093 -0.242944,0.122966 -0.489634,0.238794 -0.72883,0.368899 -1.434311,0.780158 -2.757765,1.74548 -4.071588,2.709073 -1.915136,1.479026 -3.781681,3.033061 -5.441279,4.799646 -0.277702,0.320565 -0.563297,0.63446 -0.833106,0.961696 -1.294093,1.569532 -2.410202,3.280591 -3.424462,5.041084 -0.349353,0.659162 -0.666926,1.238092 -0.983357,1.911738 -0.480321,1.022547 -0.869574,2.085665 -1.279056,3.137515 -0.243314,0.75189 -0.663852,2.00352 -0.833249,2.7758 l -1.608997,-0.94365 z"
       inkscape:connector-curvature="0"
       sodipodi:nodetypes="ccscscscscccccccccccccccscccscsccsccccccccccccccccccccccccccccccccccccccccccccccccccccccccccccccccccccccccccccsccscscccscccccccccccccccsccscscccc" />
    <path
       style="fill:#d3d7cf;fill-opacity:1;stroke:none"
       id="path3164"
       d="m 83.664174,19.842734 c -0.431176,0.04686 -1.833543,0.565014 -2.233726,0.720862 -0.737804,0.28893 -1.472417,0.583271 -2.218897,0.849438 -0.967251,0.324333 -1.95003,0.5995 -2.929561,0.883813 -1.43607,0.424612 -2.840236,0.943465 -4.240825,1.471104 -1.574705,0.580085 -3.150988,1.155124 -4.696581,1.809699 -1.51513,0.654763 -2.910021,1.540123 -4.260077,2.481211 -1.302225,0.90987 -2.589268,1.837508 -3.834676,2.823821 -1.144172,0.897016 -2.148846,1.949095 -3.152059,2.996285 -0.991402,0.96921 -1.822445,2.077532 -2.620619,3.206044 -0.688963,1.020245 -1.311178,2.083128 -1.942411,3.139376 -0.450218,0.785895 -0.899951,1.57279 -1.38222,2.339582 -0.339273,0.554222 -0.704461,1.091558 -1.064434,1.632358 -0.273773,0.460708 -0.577457,0.901342 -0.872895,1.348085 -0.290276,0.44634 -0.586041,0.889159 -0.871984,1.338316 -0.335898,0.475609 -0.679089,0.9459 -1.018661,1.418888 -0.287498,0.441519 -0.629155,0.84293 -0.970911,1.242679 -0.343944,0.375588 -0.724963,0.713188 -1.097973,1.058932 -0.387452,0.338689 -0.755808,0.696823 -1.117049,1.063177 -0.387402,0.374731 -0.767434,0.754099 -1.179762,1.101884 -0.494364,0.396322 -1.03175,0.733207 -1.563369,1.076304 -0.452174,0.2913 -0.89259,0.599042 -1.353867,0.875724 -0.424121,0.249706 -0.882138,0.435822 -1.345513,0.598516 -0.532844,0.170805 -1.080936,0.257961 -1.637041,0.302168 -0.621596,0.03705 -1.244765,0.04303 -1.867333,0.04353 -0.60611,0.0097 -1.213029,-0.02058 -1.818555,0.01005 -0.615388,0.02945 -1.225168,0.117659 -1.838627,0.170302 -0.724725,0.06018 -1.452474,0.04096 -2.178213,0.07262 -0.837656,0.04738 -1.673872,0.136305 -2.504183,0.255946 -1.238215,0.191612 -2.478292,0.370299 -3.703556,0.634486 -1.258501,0.270464 -2.480678,0.678997 -3.719213,1.024204 -0.828279,0.258898 -1.654821,0.534541 -2.452343,0.87821 l -0.688084,-1.676284 c 0.876187,-0.344794 1.77119,-0.642124 2.678591,-0.8937 1.272348,-0.339511 2.523724,-0.759434 3.814376,-1.029492 1.259894,-0.272735 2.533543,-0.468489 3.802044,-0.696088 0.890843,-0.142359 1.788599,-0.249843 2.689693,-0.299467 0.70074,-0.0335 1.403075,-0.02814 2.102755,-0.08473 0.637916,-0.05656 1.272446,-0.148487 1.912923,-0.174303 0.631915,-0.02697 1.264346,-0.01427 1.896726,-0.01727 0.572322,-0.0031 1.14536,0.0011 1.716566,-0.04081 0.403869,-0.03804 0.80128,-0.102387 1.189515,-0.224007 0.349003,-0.118141 0.694545,-0.256264 1.013532,-0.441719 0.443043,-0.256196 0.866498,-0.542977 1.298718,-0.817123 0.465902,-0.303393 0.938227,-0.598481 1.371941,-0.947528 0.370559,-0.313338 0.707409,-0.661128 1.060412,-0.99352 0.381893,-0.382381 0.768852,-0.758723 1.170825,-1.119964 0.323765,-0.299055 0.650645,-0.59476 0.953611,-0.915178 0.312296,-0.355924 0.621028,-0.716017 0.881907,-1.11218 0.322028,-0.439173 0.634266,-0.885348 0.955867,-1.324831 0.290616,-0.458744 0.585453,-0.915042 0.887337,-1.366395 0.297714,-0.45225 0.603178,-0.898919 0.885077,-1.361411 0.357426,-0.524385 0.719959,-1.045233 1.058526,-1.582229 0.484389,-0.746487 0.939199,-1.51233 1.39251,-2.277917 0.660139,-1.089107 1.326995,-2.175303 2.042052,-3.229432 0.848873,-1.197691 1.735356,-2.372558 2.786724,-3.402975 1.060108,-1.101201 2.128738,-2.200802 3.335401,-3.14473 1.276269,-1.006223 2.600309,-1.945628 3.928157,-2.882307 1.452757,-0.994707 2.948958,-1.93555 4.567885,-2.639747 1.564804,-0.663026 3.159218,-1.250245 4.752658,-1.840299 1.435646,-0.551064 2.878415,-1.082025 4.340021,-1.560764 0.943919,-0.294793 1.892055,-0.57583 2.830279,-0.888279 0.725561,-0.262544 1.434308,-0.564603 2.149663,-0.853245 0.520232,-0.212436 1.043997,-0.408027 1.596316,-0.52017 z"
       inkscape:connector-curvature="0"
       sodipodi:nodetypes="ccccccccccccccccccccccccccccccccccccccccccccccccccccccccccccccccc" />
  </g>
</svg>
