<?xml version="1.0" encoding="UTF-8" standalone="no"?>
<!-- Created with Inkscape (http://www.inkscape.org/) -->

<svg
   xmlns:dc="http://purl.org/dc/elements/1.1/"
   xmlns:cc="http://creativecommons.org/ns#"
   xmlns:rdf="http://www.w3.org/1999/02/22-rdf-syntax-ns#"
   xmlns:svg="http://www.w3.org/2000/svg"
   xmlns="http://www.w3.org/2000/svg"
   xmlns:sodipodi="http://sodipodi.sourceforge.net/DTD/sodipodi-0.dtd"
   xmlns:inkscape="http://www.inkscape.org/namespaces/inkscape"
   width="128"
   height="128"
   id="svg4397"
   version="1.1"
   inkscape:version="0.48.3.1 r9886"
   sodipodi:docname="medkit.svg"
   inkscape:export-filename="/home/zack/Programs/arena-data/icons/medkit.png"
   inkscape:export-xdpi="90"
   inkscape:export-ydpi="90">
  <defs
     id="defs4399" />
  <sodipodi:namedview
     id="base"
     pagecolor="#000000"
     bordercolor="#666666"
     borderopacity="1.0"
     inkscape:pageopacity="0"
     inkscape:pageshadow="2"
     inkscape:zoom="2.8"
     inkscape:cx="46.755621"
     inkscape:cy="82.47833"
     inkscape:document-units="px"
     inkscape:current-layer="layer1"
     showgrid="false"
     inkscape:window-width="1920"
     inkscape:window-height="993"
     inkscape:window-x="0"
     inkscape:window-y="27"
     inkscape:window-maximized="1" />
  <metadata
     id="metadata4402">
    <rdf:RDF>
      <cc:Work
         rdf:about="">
        <dc:format>image/svg+xml</dc:format>
        <dc:type
           rdf:resource="http://purl.org/dc/dcmitype/StillImage" />
        <dc:title></dc:title>
      </cc:Work>
    </rdf:RDF>
  </metadata>
  <g
     inkscape:label="Layer 1"
     inkscape:groupmode="layer"
     id="layer1"
     transform="translate(0,-924.36218)">
    <path
       style="fill:#75507b;fill-opacity:1;stroke:none"
       d="M 64.031674,1035.834 21.605267,993.40756 c -32.736628,-38.15407 23.669511,-69.25439 42.426407,-42.42641 18.785158,-26.83607 74.996486,4.17454 42.426406,42.42641 z"
       id="path2985"
       inkscape:connector-curvature="0"
       sodipodi:nodetypes="ccccc" />
    <path
       style="fill:#ad7fa8;fill-opacity:1;stroke:none"
       d="M 91.0625 17.28125 L 30.3125 77.75 L 46.1875 93.625 L 110.6875 29.46875 C 105.90332 23.306844 98.659867 18.950594 91.0625 17.28125 z "
       transform="translate(0,924.36218)"
       id="rect4412" />
    <rect
       style="fill:none;stroke:#75507b;stroke-width:6.00005483999999978;stroke-miterlimit:4;stroke-dasharray:none"
       id="rect3072"
       width="121.99994"
       height="121.99995"
       x="3.0000305"
       y="927.36218" />
    <g
       id="g4933"
       style="stroke:#ad7fa8">
      <path
         transform="matrix(0.89862179,0,0,1.1437005,4.8339377,911.10232)"
         d="m 50.44643,91.839287 a 2.5,1.9642857 0 1 1 -5,0 2.5,1.9642857 0 1 1 5,0 z"
         sodipodi:ry="1.9642857"
         sodipodi:rx="2.5"
         sodipodi:cy="91.839287"
         sodipodi:cx="47.94643"
         id="path4696"
         style="fill:none;stroke:#ad7fa8;stroke-width:0.50000000000000000;stroke-linecap:round;stroke-linejoin:round;stroke-miterlimit:4;stroke-opacity:1;stroke-dasharray:none;stroke-dashoffset:0"
         sodipodi:type="arc" />
      <path
         transform="matrix(0.89862179,0,0,1.1437005,8.4321504,907.63804)"
         d="m 50.44643,91.839287 a 2.5,1.9642857 0 1 1 -5,0 2.5,1.9642857 0 1 1 5,0 z"
         sodipodi:ry="1.9642857"
         sodipodi:rx="2.5"
         sodipodi:cy="91.839287"
         sodipodi:cx="47.94643"
         id="path4696-8"
         style="fill:none;stroke:#ad7fa8;stroke-width:0.50000000000000000;stroke-linecap:round;stroke-linejoin:round;stroke-miterlimit:4;stroke-opacity:1;stroke-dasharray:none;stroke-dashoffset:0"
         sodipodi:type="arc" />
      <path
         transform="matrix(0.89862179,0,0,1.1437005,11.967866,904.10232)"
         d="m 50.44643,91.839287 a 2.5,1.9642857 0 1 1 -5,0 2.5,1.9642857 0 1 1 5,0 z"
         sodipodi:ry="1.9642857"
         sodipodi:rx="2.5"
         sodipodi:cy="91.839287"
         sodipodi:cx="47.94643"
         id="path4696-9"
         style="fill:none;stroke:#ad7fa8;stroke-width:0.50000000000000000;stroke-linecap:round;stroke-linejoin:round;stroke-miterlimit:4;stroke-opacity:1;stroke-dasharray:none;stroke-dashoffset:0"
         sodipodi:type="arc" />
      <path
         transform="matrix(0.89862179,0,0,1.1437005,15.566079,900.63804)"
         d="m 50.44643,91.839287 a 2.5,1.9642857 0 1 1 -5,0 2.5,1.9642857 0 1 1 5,0 z"
         sodipodi:ry="1.9642857"
         sodipodi:rx="2.5"
         sodipodi:cy="91.839287"
         sodipodi:cx="47.94643"
         id="path4696-8-6"
         style="fill:none;stroke:#ad7fa8;stroke-width:0.50000000000000000;stroke-linecap:round;stroke-linejoin:round;stroke-miterlimit:4;stroke-opacity:1;stroke-dasharray:none;stroke-dashoffset:0"
         sodipodi:type="arc" />
      <path
         transform="matrix(0.89862179,0,0,1.1437005,18.964353,896.95884)"
         d="m 50.44643,91.839287 a 2.5,1.9642857 0 1 1 -5,0 2.5,1.9642857 0 1 1 5,0 z"
         sodipodi:ry="1.9642857"
         sodipodi:rx="2.5"
         sodipodi:cy="91.839287"
         sodipodi:cx="47.94643"
         id="path4696-94"
         style="fill:none;stroke:#ad7fa8;stroke-width:0.50000000000000000;stroke-linecap:round;stroke-linejoin:round;stroke-miterlimit:4;stroke-opacity:1;stroke-dasharray:none;stroke-dashoffset:0"
         sodipodi:type="arc" />
      <path
         transform="matrix(0.89862179,0,0,1.1437005,22.562566,893.49456)"
         d="m 50.44643,91.839287 a 2.5,1.9642857 0 1 1 -5,0 2.5,1.9642857 0 1 1 5,0 z"
         sodipodi:ry="1.9642857"
         sodipodi:rx="2.5"
         sodipodi:cy="91.839287"
         sodipodi:cx="47.94643"
         id="path4696-8-0"
         style="fill:none;stroke:#ad7fa8;stroke-width:0.50000000000000000;stroke-linecap:round;stroke-linejoin:round;stroke-miterlimit:4;stroke-opacity:1;stroke-dasharray:none;stroke-dashoffset:0"
         sodipodi:type="arc" />
      <path
         transform="matrix(0.89862179,0,0,1.1437005,26.098281,889.95884)"
         d="m 50.44643,91.839287 a 2.5,1.9642857 0 1 1 -5,0 2.5,1.9642857 0 1 1 5,0 z"
         sodipodi:ry="1.9642857"
         sodipodi:rx="2.5"
         sodipodi:cy="91.839287"
         sodipodi:cx="47.94643"
         id="path4696-9-6"
         style="fill:none;stroke:#ad7fa8;stroke-width:0.50000000000000000;stroke-linecap:round;stroke-linejoin:round;stroke-miterlimit:4;stroke-opacity:1;stroke-dasharray:none;stroke-dashoffset:0"
         sodipodi:type="arc" />
      <path
         transform="matrix(0.89862179,0,0,1.1437005,29.696494,886.49456)"
         d="m 50.44643,91.839287 a 2.5,1.9642857 0 1 1 -5,0 2.5,1.9642857 0 1 1 5,0 z"
         sodipodi:ry="1.9642857"
         sodipodi:rx="2.5"
         sodipodi:cy="91.839287"
         sodipodi:cx="47.94643"
         id="path4696-8-6-3"
         style="fill:none;stroke:#ad7fa8;stroke-width:0.50000000000000000;stroke-linecap:round;stroke-linejoin:round;stroke-miterlimit:4;stroke-opacity:1;stroke-dasharray:none;stroke-dashoffset:0"
         sodipodi:type="arc" />
      <path
         transform="matrix(0.89862179,0,0,1.1437005,33.11804,882.82559)"
         d="m 50.44643,91.839287 a 2.5,1.9642857 0 1 1 -5,0 2.5,1.9642857 0 1 1 5,0 z"
         sodipodi:ry="1.9642857"
         sodipodi:rx="2.5"
         sodipodi:cy="91.839287"
         sodipodi:cx="47.94643"
         id="path4696-94-4"
         style="fill:none;stroke:#ad7fa8;stroke-width:0.50000000000000000;stroke-linecap:round;stroke-linejoin:round;stroke-miterlimit:4;stroke-opacity:1;stroke-dasharray:none;stroke-dashoffset:0"
         sodipodi:type="arc" />
      <path
         transform="matrix(0.89862179,0,0,1.1437005,36.716253,879.36131)"
         d="m 50.44643,91.839287 a 2.5,1.9642857 0 1 1 -5,0 2.5,1.9642857 0 1 1 5,0 z"
         sodipodi:ry="1.9642857"
         sodipodi:rx="2.5"
         sodipodi:cy="91.839287"
         sodipodi:cx="47.94643"
         id="path4696-8-0-3"
         style="fill:none;stroke:#ad7fa8;stroke-width:0.50000000000000000;stroke-linecap:round;stroke-linejoin:round;stroke-miterlimit:4;stroke-opacity:1;stroke-dasharray:none;stroke-dashoffset:0"
         sodipodi:type="arc" />
      <path
         transform="matrix(0.89862179,0,0,1.1437005,40.251968,875.82559)"
         d="m 50.44643,91.839287 a 2.5,1.9642857 0 1 1 -5,0 2.5,1.9642857 0 1 1 5,0 z"
         sodipodi:ry="1.9642857"
         sodipodi:rx="2.5"
         sodipodi:cy="91.839287"
         sodipodi:cx="47.94643"
         id="path4696-9-6-0"
         style="fill:none;stroke:#ad7fa8;stroke-width:0.50000000000000000;stroke-linecap:round;stroke-linejoin:round;stroke-miterlimit:4;stroke-opacity:1;stroke-dasharray:none;stroke-dashoffset:0"
         sodipodi:type="arc" />
      <path
         transform="matrix(0.89862179,0,0,1.1437005,43.850181,872.36131)"
         d="m 50.44643,91.839287 a 2.5,1.9642857 0 1 1 -5,0 2.5,1.9642857 0 1 1 5,0 z"
         sodipodi:ry="1.9642857"
         sodipodi:rx="2.5"
         sodipodi:cy="91.839287"
         sodipodi:cx="47.94643"
         id="path4696-8-6-3-6"
         style="fill:none;stroke:#ad7fa8;stroke-width:0.50000000000000000;stroke-linecap:round;stroke-linejoin:round;stroke-miterlimit:4;stroke-opacity:1;stroke-dasharray:none;stroke-dashoffset:0"
         sodipodi:type="arc" />
      <path
         transform="matrix(0.89862179,0,0,1.1437005,47.323311,868.71502)"
         d="m 50.44643,91.839287 a 2.5,1.9642857 0 1 1 -5,0 2.5,1.9642857 0 1 1 5,0 z"
         sodipodi:ry="1.9642857"
         sodipodi:rx="2.5"
         sodipodi:cy="91.839287"
         sodipodi:cx="47.94643"
         id="path4696-94-4-8"
         style="fill:none;stroke:#ad7fa8;stroke-width:0.50000000000000000;stroke-linecap:round;stroke-linejoin:round;stroke-miterlimit:4;stroke-opacity:1;stroke-dasharray:none;stroke-dashoffset:0"
         sodipodi:type="arc" />
      <path
         transform="matrix(0.89862179,0,0,1.1437005,50.921524,865.25074)"
         d="m 50.44643,91.839287 a 2.5,1.9642857 0 1 1 -5,0 2.5,1.9642857 0 1 1 5,0 z"
         sodipodi:ry="1.9642857"
         sodipodi:rx="2.5"
         sodipodi:cy="91.839287"
         sodipodi:cx="47.94643"
         id="path4696-8-0-3-1"
         style="fill:none;stroke:#ad7fa8;stroke-width:0.50000000000000000;stroke-linecap:round;stroke-linejoin:round;stroke-miterlimit:4;stroke-opacity:1;stroke-dasharray:none;stroke-dashoffset:0"
         sodipodi:type="arc" />
      <path
         transform="matrix(0.89862179,0,0,1.1437005,54.457239,861.71502)"
         d="m 50.44643,91.839287 a 2.5,1.9642857 0 1 1 -5,0 2.5,1.9642857 0 1 1 5,0 z"
         sodipodi:ry="1.9642857"
         sodipodi:rx="2.5"
         sodipodi:cy="91.839287"
         sodipodi:cx="47.94643"
         id="path4696-9-6-0-4"
         style="fill:none;stroke:#ad7fa8;stroke-width:0.50000000000000000;stroke-linecap:round;stroke-linejoin:round;stroke-miterlimit:4;stroke-opacity:1;stroke-dasharray:none;stroke-dashoffset:0"
         sodipodi:type="arc" />
      <path
         transform="matrix(0.89862179,0,0,1.1437005,58.055452,858.25074)"
         d="m 50.44643,91.839287 a 2.5,1.9642857 0 1 1 -5,0 2.5,1.9642857 0 1 1 5,0 z"
         sodipodi:ry="1.9642857"
         sodipodi:rx="2.5"
         sodipodi:cy="91.839287"
         sodipodi:cx="47.94643"
         id="path4696-8-6-3-6-1"
         style="fill:none;stroke:#ad7fa8;stroke-width:0.50000000000000000;stroke-linecap:round;stroke-linejoin:round;stroke-miterlimit:4;stroke-opacity:1;stroke-dasharray:none;stroke-dashoffset:0"
         sodipodi:type="arc" />
      <path
         transform="matrix(0.89862179,0,0,1.1437005,61.844254,854.76229)"
         d="m 50.44643,91.839287 a 2.5,1.9642857 0 1 1 -5,0 2.5,1.9642857 0 1 1 5,0 z"
         sodipodi:ry="1.9642857"
         sodipodi:rx="2.5"
         sodipodi:cy="91.839287"
         sodipodi:cx="47.94643"
         id="path4696-94-4-8-4"
         style="fill:none;stroke:#ad7fa8;stroke-width:0.50000000000000000;stroke-linecap:round;stroke-linejoin:round;stroke-miterlimit:4;stroke-opacity:1;stroke-dasharray:none;stroke-dashoffset:0"
         sodipodi:type="arc" />
      <path
         transform="matrix(0.89862179,0,0,1.1437005,65.442467,851.29801)"
         d="m 50.44643,91.839287 a 2.5,1.9642857 0 1 1 -5,0 2.5,1.9642857 0 1 1 5,0 z"
         sodipodi:ry="1.9642857"
         sodipodi:rx="2.5"
         sodipodi:cy="91.839287"
         sodipodi:cx="47.94643"
         id="path4696-8-0-3-1-5"
         style="fill:none;stroke:#ad7fa8;stroke-width:0.50000000000000000;stroke-linecap:round;stroke-linejoin:round;stroke-miterlimit:4;stroke-opacity:1;stroke-dasharray:none;stroke-dashoffset:0"
         sodipodi:type="arc" />
      <path
         transform="matrix(0.89862179,0,0,1.1437005,-10.979257,895.26341)"
         d="m 50.44643,91.839287 a 2.5,1.9642857 0 1 1 -5,0 2.5,1.9642857 0 1 1 5,0 z"
         sodipodi:ry="1.9642857"
         sodipodi:rx="2.5"
         sodipodi:cy="91.839287"
         sodipodi:cx="47.94643"
         id="path4696-6"
         style="fill:none;stroke:#ad7fa8;stroke-width:0.50000000000000000;stroke-linecap:round;stroke-linejoin:round;stroke-miterlimit:4;stroke-opacity:1;stroke-dasharray:none;stroke-dashoffset:0"
         sodipodi:type="arc" />
      <path
         transform="matrix(0.89862179,0,0,1.1437005,-7.3810438,891.79913)"
         d="m 50.44643,91.839287 a 2.5,1.9642857 0 1 1 -5,0 2.5,1.9642857 0 1 1 5,0 z"
         sodipodi:ry="1.9642857"
         sodipodi:rx="2.5"
         sodipodi:cy="91.839287"
         sodipodi:cx="47.94643"
         id="path4696-8-5"
         style="fill:none;stroke:#ad7fa8;stroke-width:0.50000000000000000;stroke-linecap:round;stroke-linejoin:round;stroke-miterlimit:4;stroke-opacity:1;stroke-dasharray:none;stroke-dashoffset:0"
         sodipodi:type="arc" />
      <path
         transform="matrix(0.89862179,0,0,1.1437005,-3.8453288,888.26341)"
         d="m 50.44643,91.839287 a 2.5,1.9642857 0 1 1 -5,0 2.5,1.9642857 0 1 1 5,0 z"
         sodipodi:ry="1.9642857"
         sodipodi:rx="2.5"
         sodipodi:cy="91.839287"
         sodipodi:cx="47.94643"
         id="path4696-9-7"
         style="fill:none;stroke:#ad7fa8;stroke-width:0.50000000000000000;stroke-linecap:round;stroke-linejoin:round;stroke-miterlimit:4;stroke-opacity:1;stroke-dasharray:none;stroke-dashoffset:0"
         sodipodi:type="arc" />
      <path
         transform="matrix(0.89862179,0,0,1.1437005,-0.2471158,884.79913)"
         d="m 50.44643,91.839287 a 2.5,1.9642857 0 1 1 -5,0 2.5,1.9642857 0 1 1 5,0 z"
         sodipodi:ry="1.9642857"
         sodipodi:rx="2.5"
         sodipodi:cy="91.839287"
         sodipodi:cx="47.94643"
         id="path4696-8-6-0"
         style="fill:none;stroke:#ad7fa8;stroke-width:0.50000000000000000;stroke-linecap:round;stroke-linejoin:round;stroke-miterlimit:4;stroke-opacity:1;stroke-dasharray:none;stroke-dashoffset:0"
         sodipodi:type="arc" />
      <path
         transform="matrix(0.89862179,0,0,1.1437005,3.1511582,881.11993)"
         d="m 50.44643,91.839287 a 2.5,1.9642857 0 1 1 -5,0 2.5,1.9642857 0 1 1 5,0 z"
         sodipodi:ry="1.9642857"
         sodipodi:rx="2.5"
         sodipodi:cy="91.839287"
         sodipodi:cx="47.94643"
         id="path4696-94-3"
         style="fill:none;stroke:#ad7fa8;stroke-width:0.50000000000000000;stroke-linecap:round;stroke-linejoin:round;stroke-miterlimit:4;stroke-opacity:1;stroke-dasharray:none;stroke-dashoffset:0"
         sodipodi:type="arc" />
      <path
         transform="matrix(0.89862179,0,0,1.1437005,6.7493712,877.65565)"
         d="m 50.44643,91.839287 a 2.5,1.9642857 0 1 1 -5,0 2.5,1.9642857 0 1 1 5,0 z"
         sodipodi:ry="1.9642857"
         sodipodi:rx="2.5"
         sodipodi:cy="91.839287"
         sodipodi:cx="47.94643"
         id="path4696-8-0-9"
         style="fill:none;stroke:#ad7fa8;stroke-width:0.50000000000000000;stroke-linecap:round;stroke-linejoin:round;stroke-miterlimit:4;stroke-opacity:1;stroke-dasharray:none;stroke-dashoffset:0"
         sodipodi:type="arc" />
      <path
         transform="matrix(0.89862179,0,0,1.1437005,10.285086,874.11993)"
         d="m 50.44643,91.839287 a 2.5,1.9642857 0 1 1 -5,0 2.5,1.9642857 0 1 1 5,0 z"
         sodipodi:ry="1.9642857"
         sodipodi:rx="2.5"
         sodipodi:cy="91.839287"
         sodipodi:cx="47.94643"
         id="path4696-9-6-9"
         style="fill:none;stroke:#ad7fa8;stroke-width:0.50000000000000000;stroke-linecap:round;stroke-linejoin:round;stroke-miterlimit:4;stroke-opacity:1;stroke-dasharray:none;stroke-dashoffset:0"
         sodipodi:type="arc" />
      <path
         transform="matrix(0.89862179,0,0,1.1437005,13.883299,870.65565)"
         d="m 50.44643,91.839287 a 2.5,1.9642857 0 1 1 -5,0 2.5,1.9642857 0 1 1 5,0 z"
         sodipodi:ry="1.9642857"
         sodipodi:rx="2.5"
         sodipodi:cy="91.839287"
         sodipodi:cx="47.94643"
         id="path4696-8-6-3-7"
         style="fill:none;stroke:#ad7fa8;stroke-width:0.50000000000000000;stroke-linecap:round;stroke-linejoin:round;stroke-miterlimit:4;stroke-opacity:1;stroke-dasharray:none;stroke-dashoffset:0"
         sodipodi:type="arc" />
      <path
         transform="matrix(0.89862179,0,0,1.1437005,17.304845,866.98668)"
         d="m 50.44643,91.839287 a 2.5,1.9642857 0 1 1 -5,0 2.5,1.9642857 0 1 1 5,0 z"
         sodipodi:ry="1.9642857"
         sodipodi:rx="2.5"
         sodipodi:cy="91.839287"
         sodipodi:cx="47.94643"
         id="path4696-94-4-1"
         style="fill:none;stroke:#ad7fa8;stroke-width:0.50000000000000000;stroke-linecap:round;stroke-linejoin:round;stroke-miterlimit:4;stroke-opacity:1;stroke-dasharray:none;stroke-dashoffset:0"
         sodipodi:type="arc" />
      <path
         transform="matrix(0.89862179,0,0,1.1437005,20.903058,863.5224)"
         d="m 50.44643,91.839287 a 2.5,1.9642857 0 1 1 -5,0 2.5,1.9642857 0 1 1 5,0 z"
         sodipodi:ry="1.9642857"
         sodipodi:rx="2.5"
         sodipodi:cy="91.839287"
         sodipodi:cx="47.94643"
         id="path4696-8-0-3-4"
         style="fill:none;stroke:#ad7fa8;stroke-width:0.50000000000000000;stroke-linecap:round;stroke-linejoin:round;stroke-miterlimit:4;stroke-opacity:1;stroke-dasharray:none;stroke-dashoffset:0"
         sodipodi:type="arc" />
      <path
         transform="matrix(0.89862179,0,0,1.1437005,24.438773,859.98668)"
         d="m 50.44643,91.839287 a 2.5,1.9642857 0 1 1 -5,0 2.5,1.9642857 0 1 1 5,0 z"
         sodipodi:ry="1.9642857"
         sodipodi:rx="2.5"
         sodipodi:cy="91.839287"
         sodipodi:cx="47.94643"
         id="path4696-9-6-0-7"
         style="fill:none;stroke:#ad7fa8;stroke-width:0.50000000000000000;stroke-linecap:round;stroke-linejoin:round;stroke-miterlimit:4;stroke-opacity:1;stroke-dasharray:none;stroke-dashoffset:0"
         sodipodi:type="arc" />
      <path
         transform="matrix(0.89862179,0,0,1.1437005,28.036986,856.5224)"
         d="m 50.44643,91.839287 a 2.5,1.9642857 0 1 1 -5,0 2.5,1.9642857 0 1 1 5,0 z"
         sodipodi:ry="1.9642857"
         sodipodi:rx="2.5"
         sodipodi:cy="91.839287"
         sodipodi:cx="47.94643"
         id="path4696-8-6-3-6-2"
         style="fill:none;stroke:#ad7fa8;stroke-width:0.50000000000000000;stroke-linecap:round;stroke-linejoin:round;stroke-miterlimit:4;stroke-opacity:1;stroke-dasharray:none;stroke-dashoffset:0"
         sodipodi:type="arc" />
      <path
         transform="matrix(0.89862179,0,0,1.1437005,31.510116,852.87611)"
         d="m 50.44643,91.839287 a 2.5,1.9642857 0 1 1 -5,0 2.5,1.9642857 0 1 1 5,0 z"
         sodipodi:ry="1.9642857"
         sodipodi:rx="2.5"
         sodipodi:cy="91.839287"
         sodipodi:cx="47.94643"
         id="path4696-94-4-8-5"
         style="fill:none;stroke:#ad7fa8;stroke-width:0.50000000000000000;stroke-linecap:round;stroke-linejoin:round;stroke-miterlimit:4;stroke-opacity:1;stroke-dasharray:none;stroke-dashoffset:0"
         sodipodi:type="arc" />
      <path
         transform="matrix(0.89862179,0,0,1.1437005,35.108329,849.41183)"
         d="m 50.44643,91.839287 a 2.5,1.9642857 0 1 1 -5,0 2.5,1.9642857 0 1 1 5,0 z"
         sodipodi:ry="1.9642857"
         sodipodi:rx="2.5"
         sodipodi:cy="91.839287"
         sodipodi:cx="47.94643"
         id="path4696-8-0-3-1-3"
         style="fill:none;stroke:#ad7fa8;stroke-width:0.50000000000000000;stroke-linecap:round;stroke-linejoin:round;stroke-miterlimit:4;stroke-opacity:1;stroke-dasharray:none;stroke-dashoffset:0"
         sodipodi:type="arc" />
      <path
         transform="matrix(0.89862179,0,0,1.1437005,38.644044,845.87611)"
         d="m 50.44643,91.839287 a 2.5,1.9642857 0 1 1 -5,0 2.5,1.9642857 0 1 1 5,0 z"
         sodipodi:ry="1.9642857"
         sodipodi:rx="2.5"
         sodipodi:cy="91.839287"
         sodipodi:cx="47.94643"
         id="path4696-9-6-0-4-1"
         style="fill:none;stroke:#ad7fa8;stroke-width:0.50000000000000000;stroke-linecap:round;stroke-linejoin:round;stroke-miterlimit:4;stroke-opacity:1;stroke-dasharray:none;stroke-dashoffset:0"
         sodipodi:type="arc" />
      <path
         transform="matrix(0.89862179,0,0,1.1437005,42.242257,842.41183)"
         d="m 50.44643,91.839287 a 2.5,1.9642857 0 1 1 -5,0 2.5,1.9642857 0 1 1 5,0 z"
         sodipodi:ry="1.9642857"
         sodipodi:rx="2.5"
         sodipodi:cy="91.839287"
         sodipodi:cx="47.94643"
         id="path4696-8-6-3-6-1-9"
         style="fill:none;stroke:#ad7fa8;stroke-width:0.50000000000000000;stroke-linecap:round;stroke-linejoin:round;stroke-miterlimit:4;stroke-opacity:1;stroke-dasharray:none;stroke-dashoffset:0"
         sodipodi:type="arc" />
      <path
         transform="matrix(0.89862179,0,0,1.1437005,46.031059,838.92338)"
         d="m 50.44643,91.839287 a 2.5,1.9642857 0 1 1 -5,0 2.5,1.9642857 0 1 1 5,0 z"
         sodipodi:ry="1.9642857"
         sodipodi:rx="2.5"
         sodipodi:cy="91.839287"
         sodipodi:cx="47.94643"
         id="path4696-94-4-8-4-4"
         style="fill:none;stroke:#ad7fa8;stroke-width:0.50000000000000000;stroke-linecap:round;stroke-linejoin:round;stroke-miterlimit:4;stroke-opacity:1;stroke-dasharray:none;stroke-dashoffset:0"
         sodipodi:type="arc" />
    </g>
  </g>
</svg>
