<?xml version="1.0" encoding="UTF-8" standalone="no"?>
<!-- Created with Inkscape (http://www.inkscape.org/) -->

<svg
   xmlns:dc="http://purl.org/dc/elements/1.1/"
   xmlns:cc="http://creativecommons.org/ns#"
   xmlns:rdf="http://www.w3.org/1999/02/22-rdf-syntax-ns#"
   xmlns:svg="http://www.w3.org/2000/svg"
   xmlns="http://www.w3.org/2000/svg"
   xmlns:sodipodi="http://sodipodi.sourceforge.net/DTD/sodipodi-0.dtd"
   xmlns:inkscape="http://www.inkscape.org/namespaces/inkscape"
   id="svg2"
   version="1.1"
   inkscape:version="0.48.3.1 r9886"
   width="128"
   height="128"
   sodipodi:docname="portal.svg"
   inkscape:export-filename="/home/zack/Programs/arena-data/icons/portal.png"
   inkscape:export-xdpi="90"
   inkscape:export-ydpi="90">
  <metadata
     id="metadata8">
    <rdf:RDF>
      <cc:Work
         rdf:about="">
        <dc:format>image/svg+xml</dc:format>
        <dc:type
           rdf:resource="http://purl.org/dc/dcmitype/StillImage" />
        <dc:title></dc:title>
      </cc:Work>
    </rdf:RDF>
  </metadata>
  <defs
     id="defs6" />
  <sodipodi:namedview
     pagecolor="#000000"
     bordercolor="#666666"
     borderopacity="1"
     objecttolerance="10"
     gridtolerance="10"
     guidetolerance="10"
     inkscape:pageopacity="0"
     inkscape:pageshadow="2"
     inkscape:window-width="1920"
     inkscape:window-height="993"
     id="namedview4"
     showgrid="false"
     inkscape:zoom="5.2149125"
     inkscape:cx="62.308672"
     inkscape:cy="62.902817"
     inkscape:window-x="0"
     inkscape:window-y="27"
     inkscape:window-maximized="1"
     inkscape:current-layer="svg2" />
  <path
     style="fill:#729fcf;fill-opacity:1;stroke:none"
     d="M 64 16 C 37.490332 16 16 37.490332 16 64 C 16 90.509668 37.490332 112 64 112 C 90.509668 112 112 90.509668 112 64 C 112 37.490332 90.509668 16 64 16 z M 64 33.90625 C 80.624269 33.90625 94.09375 47.375732 94.09375 64 C 94.09375 80.624268 80.624269 94.09375 64 94.09375 C 47.375731 94.09375 33.90625 80.624268 33.90625 64 C 33.90625 47.375732 47.375731 33.90625 64 33.90625 z "
     id="path2994" />
  <rect
     style="fill:none;stroke:#729fcf;stroke-width:6.00005483999999978;stroke-miterlimit:4;stroke-dasharray:none"
     id="rect3072"
     width="121.99994"
     height="121.99995"
     x="3.0000274"
     y="3.000026" />
  <path
     sodipodi:type="arc"
     style="fill:#fcaf3e;fill-opacity:1;stroke:none"
     id="path3015"
     sodipodi:cx="67.728813"
     sodipodi:cy="63.796612"
     sodipodi:rx="18.915255"
     sodipodi:ry="46.847458"
     d="m 86.644068,63.796612 a 18.915255,46.847458 0 1 1 -37.830509,0 18.915255,46.847458 0 1 1 37.830509,0 z"
     transform="matrix(1.0394265,0,0,1,-6.3991232,0.20338821)" />
</svg>
