<?xml version="1.0" encoding="UTF-8" standalone="no"?>
<!-- Created with Inkscape (http://www.inkscape.org/) -->

<svg
   xmlns:dc="http://purl.org/dc/elements/1.1/"
   xmlns:cc="http://creativecommons.org/ns#"
   xmlns:rdf="http://www.w3.org/1999/02/22-rdf-syntax-ns#"
   xmlns:svg="http://www.w3.org/2000/svg"
   xmlns="http://www.w3.org/2000/svg"
   xmlns:xlink="http://www.w3.org/1999/xlink"
   xmlns:sodipodi="http://sodipodi.sourceforge.net/DTD/sodipodi-0.dtd"
   xmlns:inkscape="http://www.inkscape.org/namespaces/inkscape"
   width="1024"
   height="1024"
   id="svg2"
   version="1.1"
   inkscape:version="0.48.2 r9819"
   sodipodi:docname="addbotframe.svg">
  <defs
     id="defs4">
    <linearGradient
       id="linearGradient4021">
      <stop
         style="stop-color:#000000;stop-opacity:1;"
         offset="0"
         id="stop4023" />
      <stop
         style="stop-color:#ffffff;stop-opacity:1;"
         offset="1"
         id="stop4025" />
    </linearGradient>
    <linearGradient
       inkscape:collect="always"
       xlink:href="#linearGradient4021"
       id="linearGradient4027"
       x1="179.92247"
       y1="1074.4409"
       x2="586.81964"
       y2="-31.367758"
       gradientUnits="userSpaceOnUse" />
  </defs>
  <sodipodi:namedview
     id="base"
     pagecolor="#000000"
     bordercolor="#666666"
     borderopacity="1.0"
     inkscape:pageopacity="0"
     inkscape:pageshadow="2"
     inkscape:zoom="0.7"
     inkscape:cx="621.71836"
     inkscape:cy="492.87184"
     inkscape:document-units="px"
     inkscape:current-layer="layer1"
     showgrid="false"
     inkscape:window-width="1920"
     inkscape:window-height="1026"
     inkscape:window-x="0"
     inkscape:window-y="26"
     inkscape:window-maximized="1" />
  <metadata
     id="metadata7">
    <rdf:RDF>
      <cc:Work
         rdf:about="">
        <dc:format>image/svg+xml</dc:format>
        <dc:type
           rdf:resource="http://purl.org/dc/dcmitype/StillImage" />
        <dc:title />
      </cc:Work>
    </rdf:RDF>
  </metadata>
  <g
     inkscape:label="Layer 1"
     inkscape:groupmode="layer"
     id="layer1"
     transform="translate(0,-28.362183)">
    <path
       sodipodi:type="arc"
       style="fill:#000000;fill-opacity:0.49803922;stroke:none"
       id="path3997-4"
       sodipodi:cx="530.33008"
       sodipodi:cy="520.94403"
       sodipodi:rx="314.15744"
       sodipodi:ry="385.87827"
       d="m 844.48752,520.94403 c 0,213.11468 -140.65308,385.87827 -314.15744,385.87827 -173.50437,0 -314.15744,-172.76359 -314.15744,-385.87827 0,-213.11468 140.65307,-385.87826 314.15744,-385.87826 173.50436,0 314.15744,172.76358 314.15744,385.87826 z"
       transform="matrix(1.470839,0,0,1.312629,-268.03014,-143.44409)" />
    <path
       style="fill:url(#linearGradient4027);fill-opacity:1;stroke:none;stroke-width:2;stroke-miterlimit:4;stroke-dasharray:none"
       d="M 512 1.5 C 231.7155 1.5 4.5 230.05864 4.5 512 C 4.5 793.94136 231.7155 1022.5 512 1022.5 C 792.2845 1022.5 1019.5 793.94136 1019.5 512 C 1019.5 230.05864 792.2845 1.5 512 1.5 z M 512 10.5 C 764.67027 10.5 969.5 235.02919 969.5 512 C 969.5 788.97081 764.67027 1013.5 512 1013.5 C 259.32973 1013.5 54.5 788.97081 54.5 512 C 54.5 235.02919 259.32973 10.5 512 10.5 z "
       transform="translate(0,28.362183)"
       id="path3224" />
  </g>
</svg>
