<?xml version="1.0" encoding="UTF-8" standalone="no"?>
<!-- Created with Inkscape (http://www.inkscape.org/) -->

<svg
   xmlns:dc="http://purl.org/dc/elements/1.1/"
   xmlns:cc="http://creativecommons.org/ns#"
   xmlns:rdf="http://www.w3.org/1999/02/22-rdf-syntax-ns#"
   xmlns:svg="http://www.w3.org/2000/svg"
   xmlns="http://www.w3.org/2000/svg"
   xmlns:xlink="http://www.w3.org/1999/xlink"
   xmlns:sodipodi="http://sodipodi.sourceforge.net/DTD/sodipodi-0.dtd"
   xmlns:inkscape="http://www.inkscape.org/namespaces/inkscape"
   width="1024"
   height="1024"
   id="svg2"
   version="1.1"
   inkscape:version="0.48.2 r9819"
   sodipodi:docname="cut_frame.svg"
   inkscape:export-filename="/home/zack/Programs/arena-data/_sourcefiles/menu/art/cut_frame.png"
   inkscape:export-xdpi="90"
   inkscape:export-ydpi="90">
  <defs
     id="defs4">
    <linearGradient
       id="linearGradient4021">
      <stop
         style="stop-color:#000000;stop-opacity:1;"
         offset="0"
         id="stop4023" />
      <stop
         style="stop-color:#ffffff;stop-opacity:1;"
         offset="1"
         id="stop4025" />
    </linearGradient>
    <linearGradient
       inkscape:collect="always"
       xlink:href="#linearGradient4021"
       id="linearGradient4027"
       x1="179.92247"
       y1="1074.4409"
       x2="586.81964"
       y2="-31.367758"
       gradientUnits="userSpaceOnUse"
       gradientTransform="matrix(1,0,0,0.85728278,0,28.576259)" />
    <linearGradient
       inkscape:collect="always"
       xlink:href="#linearGradient4021"
       id="linearGradient4138"
       gradientUnits="userSpaceOnUse"
       gradientTransform="matrix(1,0,0,0.85728278,0,28.576259)"
       x1="179.92247"
       y1="1074.4409"
       x2="586.81964"
       y2="-31.367758" />
  </defs>
  <sodipodi:namedview
     id="base"
     pagecolor="#000000"
     bordercolor="#666666"
     borderopacity="1.0"
     inkscape:pageopacity="0"
     inkscape:pageshadow="2"
     inkscape:zoom="0.49497475"
     inkscape:cx="595.35121"
     inkscape:cy="634.18053"
     inkscape:document-units="px"
     inkscape:current-layer="layer1"
     showgrid="false"
     inkscape:window-width="1920"
     inkscape:window-height="1026"
     inkscape:window-x="0"
     inkscape:window-y="26"
     inkscape:window-maximized="1"
     showguides="true"
     inkscape:guide-bbox="true" />
  <metadata
     id="metadata7">
    <rdf:RDF>
      <cc:Work
         rdf:about="">
        <dc:format>image/svg+xml</dc:format>
        <dc:type
           rdf:resource="http://purl.org/dc/dcmitype/StillImage" />
        <dc:title />
      </cc:Work>
    </rdf:RDF>
  </metadata>
  <g
     inkscape:label="Layer 1"
     inkscape:groupmode="layer"
     id="layer1"
     transform="translate(0,-28.362183)">
    <g
       id="g4134"
       transform="matrix(1,0,0,0.92426962,0,108.26148)">
      <path
         transform="matrix(1.470839,0,0,1.1252942,-268.03014,-118.7103)"
         d="m 844.48752,520.94403 c 0,213.11468 -140.65308,385.87827 -314.15744,385.87827 -173.50437,0 -314.15744,-172.76359 -314.15744,-385.87827 0,-213.11468 140.65307,-385.87826 314.15744,-385.87826 173.50436,0 314.15744,172.76358 314.15744,385.87826 z"
         sodipodi:ry="385.87827"
         sodipodi:rx="314.15744"
         sodipodi:cy="520.94403"
         sodipodi:cx="530.33008"
         id="path3997-4"
         style="fill:#000000;fill-opacity:0.49803922;stroke:none"
         sodipodi:type="arc" />
      <path
         inkscape:connector-curvature="0"
         id="path3224"
         d="M 512,29.862183 C 231.7155,29.862183 4.5,225.80157 4.5,467.50504 4.5,709.20851 231.7155,905.1479 512,905.1479 c 280.2845,0 507.5,-195.93939 507.5,-437.64286 C 1019.5,225.80157 792.2845,29.862183 512,29.862183 z m 0,7.715545 c 252.67027,0 457.5,192.485012 457.5,429.927312 0,237.4423 -204.82973,429.92731 -457.5,429.92731 -252.67027,0 -457.5,-192.48501 -457.5,-429.92731 C 54.5,230.06274 259.32973,37.577728 512,37.577728 z"
         style="fill:url(#linearGradient4138);fill-opacity:1;stroke:none" />
    </g>
  </g>
</svg>
