<?xml version="1.0" encoding="UTF-8" standalone="no"?>
<!-- Created with Inkscape (http://www.inkscape.org/) -->

<svg
   xmlns:dc="http://purl.org/dc/elements/1.1/"
   xmlns:cc="http://creativecommons.org/ns#"
   xmlns:rdf="http://www.w3.org/1999/02/22-rdf-syntax-ns#"
   xmlns:svg="http://www.w3.org/2000/svg"
   xmlns="http://www.w3.org/2000/svg"
   xmlns:sodipodi="http://sodipodi.sourceforge.net/DTD/sodipodi-0.dtd"
   xmlns:inkscape="http://www.inkscape.org/namespaces/inkscape"
   width="256"
   height="256"
   id="svg3908"
   version="1.1"
   inkscape:version="0.48.0 r9654"
   sodipodi:docname="randombot_icon.svg">
  <defs
     id="defs3910" />
  <sodipodi:namedview
     id="base"
     pagecolor="#ffffff"
     bordercolor="#666666"
     borderopacity="1.0"
     inkscape:pageopacity="0.0"
     inkscape:pageshadow="2"
     inkscape:zoom="1.4"
     inkscape:cx="103.67226"
     inkscape:cy="148.36827"
     inkscape:document-units="px"
     inkscape:current-layer="layer1"
     showgrid="false"
     inkscape:window-width="1152"
     inkscape:window-height="782"
     inkscape:window-x="0"
     inkscape:window-y="27"
     inkscape:window-maximized="1" />
  <metadata
     id="metadata3913">
    <rdf:RDF>
      <cc:Work
         rdf:about="">
        <dc:format>image/svg+xml</dc:format>
        <dc:type
           rdf:resource="http://purl.org/dc/dcmitype/StillImage" />
        <dc:title></dc:title>
      </cc:Work>
    </rdf:RDF>
  </metadata>
  <g
     inkscape:label="Layer 1"
     inkscape:groupmode="layer"
     id="layer1">
    <rect
       style="fill:#0d0d0d;fill-opacity:1;stroke:none"
       id="rect3916"
       width="256"
       height="256"
       x="0"
       y="0" />
    <g
       id="g3878"
       transform="matrix(6.5160652,0,0,6.5160816,-4372.7392,-1459.1314)">
      <path
         sodipodi:nodetypes="cccccc"
         inkscape:connector-curvature="0"
         id="path3864"
         d="m 686.85457,261.98539 -0.0116,-6.09853 6.34367,-0.0243 -0.0201,6.09657 -6.31201,0.0263 z"
         style="fill:#eeeeec;fill-opacity:1;stroke:none;display:inline;enable-background:new" />
      <path
         sodipodi:nodetypes="cssssssss"
         inkscape:connector-curvature="0"
         id="path3893"
         d="m 683.05839,232.80299 c 0.65894,-1.39754 1.79944,-2.43268 3.04498,-3.11791 1.38028,-0.75936 2.88765,-1.23925 4.35106,-1.34834 1.58006,-0.11779 3.19012,0.11122 4.64675,0.84436 1.68846,0.84983 3.01421,2.67906 3.1198,4.45721 0.0696,1.17151 0.19042,4.17556 0.13514,5.43022 -0.19632,4.45603 -2.95519,5.20458 -7.57291,6.07581 -1.05115,0.19833 -0.79883,1.15533 -0.79883,2.15957 0,1.89667 0,3.79335 0,5.69003"
         style="fill:none;stroke:#eeeeec;stroke-width:6.30000019;stroke-linecap:butt;stroke-linejoin:miter;stroke-miterlimit:4;stroke-opacity:1;stroke-dasharray:none;display:inline;enable-background:new" />
    </g>
  </g>
</svg>
