<?xml version="1.0" encoding="UTF-8" standalone="no"?>
<!-- Created with Inkscape (http://www.inkscape.org/) -->
<svg
   xmlns:dc="http://purl.org/dc/elements/1.1/"
   xmlns:cc="http://creativecommons.org/ns#"
   xmlns:rdf="http://www.w3.org/1999/02/22-rdf-syntax-ns#"
   xmlns:svg="http://www.w3.org/2000/svg"
   xmlns="http://www.w3.org/2000/svg"
   xmlns:sodipodi="http://sodipodi.sourceforge.net/DTD/sodipodi-0.dtd"
   xmlns:inkscape="http://www.inkscape.org/namespaces/inkscape"
   width="128"
   height="128"
   id="svg2"
   sodipodi:version="0.32"
   inkscape:version="0.46"
   version="1.0"
   sodipodi:docname="raildisc_mono2.svg"
   inkscape:output_extension="org.inkscape.output.svg.inkscape">
  <defs
     id="defs4">
    <inkscape:perspective
       sodipodi:type="inkscape:persp3d"
       inkscape:vp_x="0 : 526.18109 : 1"
       inkscape:vp_y="0 : 1000 : 0"
       inkscape:vp_z="744.09448 : 526.18109 : 1"
       inkscape:persp3d-origin="372.04724 : 350.78739 : 1"
       id="perspective10" />
    <inkscape:perspective
       id="perspective2554"
       inkscape:persp3d-origin="372.04724 : 350.78739 : 1"
       inkscape:vp_z="744.09448 : 526.18109 : 1"
       inkscape:vp_y="0 : 1000 : 0"
       inkscape:vp_x="0 : 526.18109 : 1"
       sodipodi:type="inkscape:persp3d" />
    <inkscape:perspective
       id="perspective2517"
       inkscape:persp3d-origin="372.04724 : 350.78739 : 1"
       inkscape:vp_z="744.09448 : 526.18109 : 1"
       inkscape:vp_y="0 : 1000 : 0"
       inkscape:vp_x="0 : 526.18109 : 1"
       sodipodi:type="inkscape:persp3d" />
  </defs>
  <sodipodi:namedview
     id="base"
     pagecolor="#ffffff"
     bordercolor="#666666"
     borderopacity="1.0"
     gridtolerance="10000"
     guidetolerance="10"
     objecttolerance="10"
     inkscape:pageopacity="0.0"
     inkscape:pageshadow="2"
     inkscape:zoom="3.959798"
     inkscape:cx="61.267601"
     inkscape:cy="57.35425"
     inkscape:document-units="px"
     inkscape:current-layer="svg2"
     showgrid="false"
     inkscape:window-width="641"
     inkscape:window-height="708"
     inkscape:window-x="46"
     inkscape:window-y="35" />
  <metadata
     id="metadata7">
    <rdf:RDF>
      <cc:Work
         rdf:about="">
        <dc:format>image/svg+xml</dc:format>
        <dc:type
           rdf:resource="http://purl.org/dc/dcmitype/StillImage" />
      </cc:Work>
    </rdf:RDF>
  </metadata>
  <path
     style="fill:#aaaaaa;fill-rule:evenodd;stroke:#000000;stroke-width:0;stroke-linecap:butt;stroke-linejoin:miter;stroke-opacity:1;stroke-miterlimit:4;stroke-dasharray:none"
     d="M 30.178571,48.714286 C 30.178571,48.190408 31.568487,46.648739 31.964286,45.857143 C 32.478773,44.828168 33.240446,43.840536 33.75,42.821429 C 34.356277,41.608875 35.294954,40.624378 35.892857,39.428571 C 36.559218,38.09585 37.544895,36.83878 38.214286,35.5 C 38.791807,34.344957 40.117636,33.596649 41.071429,32.642857 C 42.022464,31.691822 43.109369,31.088173 44.285714,30.5 C 45.654117,29.815798 46.958502,29.466599 48.392857,28.892857 C 49.920419,28.281833 51.624975,28.040185 53.214286,27.642857 C 54.913153,27.21814 57.165997,27.107143 58.928571,27.107143 C 60.572928,27.107143 62.224159,26.75 63.928571,26.75 C 65.119048,26.75 66.309524,26.75 67.5,26.75 C 68.982526,26.75 70.168301,27.012722 71.428571,27.642857 C 72.304375,28.080759 73.719613,28.304903 74.642857,28.535714 C 75.6123,28.778075 76.773508,29.594937 77.5,30.321429 C 78.362551,31.183979 79.946633,31.754617 80.892857,32.464286 C 81.992217,33.288805 83.198484,34.242099 84.285714,34.785714 C 85.179623,35.232668 86.091779,36.948922 86.785714,37.642857 C 87.746151,38.603293 88.582789,39.439932 89.464286,40.321429 C 90.40389,41.261033 91.025138,42.193133 91.607143,43.357143 C 92.232368,44.607594 93.137303,45.703178 93.75,46.928571 C 94.371554,48.171679 94.409949,49.498469 95,50.678571 C 95.480853,51.640277 95.594177,53.412424 95.892857,54.607143 C 96.256676,56.062418 96.239049,57.599051 96.607143,59.071429 C 96.904705,60.261677 96.785714,61.944091 96.785714,63.178571 C 96.785714,64.369048 96.785714,65.559524 96.785714,66.75 C 96.785714,67.821429 96.785714,68.892857 96.785714,69.964286 C 96.785714,70.955935 96.144077,72.173692 95.892857,73.178571 C 95.595704,74.367183 95.12403,75.539595 94.821429,76.75 C 94.568796,77.760531 93.830118,78.911192 93.392857,79.785714 C 92.890881,80.789667 92.239201,81.543197 91.964286,82.642857 C 91.730261,83.578955 90.45862,85.067078 90,85.678571 C 89.314275,86.592872 88.907161,87.433309 88.214286,88.357143 C 87.511663,89.293973 86.58656,90.16344 85.714286,91.035714 C 84.807475,91.942525 84.072965,92.534562 83.214286,93.178571 C 82.249384,93.902248 81.321505,94.598157 80.357143,95.321429 C 79.538552,95.935372 78.410501,96.522375 77.5,96.75 C 76.324552,97.043862 75.456966,97.707187 74.285714,98 C 73.355031,98.232671 72.421718,98.48557 71.607143,98.892857 C 70.815572,99.288643 69.244209,99.394305 68.392857,99.607143 C 67.522074,99.824839 66.552176,99.576242 65.714286,99.785714 C 64.865728,99.997854 63.963604,99.964286 63.035714,99.964286 C 62.163683,99.964286 60.824394,100.2939 60,100.5 C 59.051278,100.73718 57.962617,100.67857 56.964286,100.67857 C 55.825013,100.67857 54.925866,100.57075 53.928571,100.32143 C 52.434409,99.947888 51.072303,99.464636 49.642857,98.892857 C 48.240293,98.331831 46.940205,97.815409 45.535714,97.464286 C 44.522715,97.211036 43.92719,96.570047 43.214286,95.857143 C 42.578107,95.220964 42.165029,95.008629 41.785714,94.25 C 41.32466,93.327891 40.789034,92.970924 40.357143,92.107143 C 39.845137,91.083132 38.90039,90.265066 38.392857,89.25 C 38.052418,88.569121 37.43626,87.757689 36.964286,87.285714 C 36.474865,86.796294 35.862407,85.439099 35.535714,84.785714 C 35.065371,83.845027 34.747579,83.030872 34.285714,82.107143 C 33.791156,81.118027 32.960049,80.101494 32.321429,79.25 C 31.757853,78.498565 31.492742,77.363827 31.25,76.392857 C 30.982127,75.321365 30.446045,74.427039 30.178571,73.357143 C 29.806599,71.869251 29.821429,70.290182 29.821429,68.714286 C 29.821429,67.642857 29.821429,66.571429 29.821429,65.5 C 29.821429,64.1449 29.464286,62.672397 29.464286,61.214286 C 29.464286,59.74174 29.827749,58.510432 30.178571,57.107143 C 30.433043,56.089255 30.650028,55.221317 30.892857,54.25 C 31.110517,53.379361 31.071429,52.496309 31.071429,51.571429 C 31.071429,50.011744 29.847388,50.370202 30.178571,48.714286 z"
     id="path4777" />
  <g
     inkscape:label="Layer 1"
     inkscape:groupmode="layer"
     id="layer1"
     style="fill:#000000" />
  <path
     sodipodi:type="spiral"
     style="fill:none;fill-rule:evenodd;stroke:#000000;stroke-width:1px;stroke-linecap:butt;stroke-linejoin:miter;stroke-opacity:1"
     id="path2531"
     sodipodi:cx="37.67857"
     sodipodi:cy="47.642857"
     sodipodi:expansion="1"
     sodipodi:revolution="5.0451012"
     sodipodi:radius="44.754356"
     sodipodi:argument="-17.258629"
     sodipodi:t0="0.6289745"
     d="M 12.482412,60.19433 C 4.6166636,46.207197 10.282388,28.187063 24.138243,20.461649 C 39.207978,12.05943 58.578788,18.177489 66.844827,33.113677 C 75.783811,49.265833 69.213252,69.987749 53.196602,78.794164 C 35.96217,88.270151 13.888799,81.246959 4.5422129,64.149742 C -5.4709733,45.83315 2.0049606,22.408038 20.182831,12.52145 C 39.581485,1.9709011 64.358579,9.8996677 74.785026,29.158265 C 85.873075,49.6389 77.4914,75.768178 57.152015,86.734363 C 47.155035,92.124336 35.234134,93.400228 24.302775,90.351644"
     transform="translate(23.214286,13.214285)" />
  <path
     style="fill:#888888;fill-rule:evenodd;stroke:#000000;stroke-width:0;stroke-linecap:butt;stroke-linejoin:miter;stroke-opacity:1;stroke-miterlimit:4;stroke-dasharray:none"
     d="M 52.5,75.5 C 53.404865,76.326899 55.743583,75.998396 57.321429,76.392857 C 58.943146,76.798287 61.336257,76.415936 62.857143,76.035714 C 64.831361,75.54216 66.948064,74.824673 68.928571,74.428571 C 70.685515,74.077183 72.538251,72.770427 73.571429,71.392857 C 75.128406,69.316887 76.806186,68.254783 77.321429,65.678571 C 77.797592,63.297753 77.604724,61.166619 76.071429,59.25 C 74.485161,57.267166 73.465988,55.037416 71.607143,53.178571 C 70.061499,51.632928 68.425381,49.805229 66.607143,48.714286 C 65.233535,47.890121 63.880694,46.928571 62.321429,46.928571 C 60.936054,46.928571 59.965273,46.937253 58.571429,47.285714 C 56.590373,47.780978 54.722439,48.317352 52.857143,49.25 C 51.016411,50.170366 49.092198,51.95348 48.035714,53.714286 C 47.138854,55.209053 46.964286,57.195071 46.964286,58.892857 C 46.964286,60.698381 46.785714,62.587491 46.785714,64.428571 C 46.785714,66.398501 47.371982,67.590669 48.035714,69.25 C 48.432361,70.241617 49.975839,71.190125 50.714286,71.928571 C 51.458337,72.672622 51.918126,73.086252 52.321429,73.892857 C 52.696803,74.643606 52.755082,74.224592 52.5,75.5 z"
     id="path4783" />
</svg>
